<svg version="1.1" id="Layer_1" xmlns="http://www.w3.org/2000/svg" xmlns:xlink="http://www.w3.org/1999/xlink" x="0px" y="0px"
	 width="100%" viewBox="0 0 897 257" enable-background="new 0 0 897 257" xml:space="preserve">
<path fill="#FEFEFE" opacity="1.000000" stroke="none" 
	d="
M588.000000,258.000000 
	C392.000031,258.000000 196.500046,258.000000 1.000052,258.000000 
	C1.000035,172.333374 1.000035,86.666733 1.000018,1.000075 
	C299.999939,1.000050 598.999878,1.000050 897.999878,1.000025 
	C897.999878,86.666588 897.999878,172.333176 897.999939,257.999878 
	C794.833313,258.000000 691.666687,258.000000 588.000000,258.000000 
M381.671448,141.024185 
	C381.977844,140.751709 382.284271,140.479218 383.228241,140.069458 
	C395.928741,133.033859 397.827728,109.580681 382.294952,100.050201 
	C379.059509,98.065010 375.612854,96.418373 372.231262,94.678444 
	C368.109436,92.557648 363.876160,90.641243 359.835663,88.378288 
	C356.312378,86.405006 353.705811,83.429329 354.417084,79.117363 
	C355.130463,74.792763 358.659027,73.141174 362.529816,72.013557 
	C369.967773,69.846764 376.989777,71.694199 384.383728,74.194939 
	C384.383728,74.194939 384.832153,74.208160 384.986237,73.998260 
	C384.986237,73.998260 384.821136,74.200363 385.147888,74.743355 
	C385.747223,74.932304 386.346588,75.121262 387.265533,75.771278 
	C387.441956,75.833298 387.618347,75.895309 388.280670,76.391785 
	C388.773102,76.254601 389.693573,76.124542 389.696014,75.979202 
	C389.775421,71.207916 389.980103,66.418152 389.601929,61.676125 
	C389.520355,60.653309 387.291260,59.801754 385.440948,58.411018 
	C381.407593,58.165401 377.269257,58.409702 373.362549,57.572906 
	C365.046082,55.791573 357.028656,56.862392 349.481903,60.081284 
	C331.997681,67.538773 329.514984,89.488258 344.765869,100.890747 
	C348.171143,103.436760 352.199493,105.169533 356.004059,107.155952 
	C360.246246,109.370857 364.705261,111.206276 368.798401,113.659790 
	C372.218201,115.709694 375.216156,119.189026 373.592804,123.104523 
	C372.401794,125.977249 369.093048,128.909470 366.089874,129.921936 
	C356.091095,133.292862 346.902985,129.896744 337.828491,124.306534 
	C336.985077,123.913277 336.141632,123.520020 335.298218,123.126770 
	C335.266083,123.755188 335.233948,124.383606 335.057922,125.932892 
	C335.089935,130.623489 335.121918,135.314102 335.050110,140.559601 
	C335.367096,140.716644 335.684082,140.873688 336.153656,141.242798 
	C336.153656,141.242798 336.414429,141.227692 336.782043,141.746368 
	C337.187531,141.825256 337.593018,141.904144 338.308075,142.171555 
	C338.308075,142.171555 338.668549,142.133759 339.184540,142.703094 
	C348.946838,145.767258 358.865234,146.750854 369.673676,145.018372 
	C370.109589,144.899521 370.545532,144.780670 371.714386,144.635620 
	C374.002014,143.824249 376.289673,143.012878 378.830658,142.246582 
	C378.830658,142.246582 378.997253,142.050476 379.608490,142.056183 
	C380.099487,141.723602 380.590454,141.391006 381.032593,140.999069 
	C381.032593,140.999069 381.036591,141.075836 381.671448,141.024185 
M483.902496,141.124542 
	C483.902496,141.124542 483.809570,141.173691 484.130127,141.713089 
	C484.729095,141.863297 485.328033,142.013504 485.929443,142.065948 
	C485.929443,142.065948 485.851654,142.125244 486.212555,142.633896 
	C486.806335,142.763290 487.400085,142.892685 488.453064,143.341537 
	C488.971893,143.513062 489.490723,143.684570 490.590088,144.093811 
	C491.400940,144.257797 492.211792,144.421799 493.639130,144.892197 
	C494.093689,144.907547 494.548279,144.922897 495.805908,145.117584 
	C501.200775,145.050690 506.595642,144.983780 512.764465,144.944672 
	C531.825562,139.678421 544.178650,125.510139 545.230530,107.223686 
	C545.149963,102.483879 545.069458,97.744064 545.062683,92.189003 
	C540.453979,60.395184 510.584534,49.187946 485.486725,60.577976 
	C467.483948,68.748085 461.349945,84.680855 461.732819,103.596756 
	C462.049408,119.239418 467.711273,131.985306 482.108673,140.638626 
	C482.701324,140.835236 483.294006,141.031845 483.902496,141.124542 
M624.729736,141.118011 
	C625.277954,140.793793 625.826172,140.469589 626.969421,140.128845 
	C627.645752,139.740585 628.322083,139.352341 629.767700,138.796570 
	C629.767700,124.436089 629.767700,110.075607 629.767700,95.670105 
	C618.178406,95.670105 606.512024,95.670105 594.702454,95.670105 
	C594.702454,100.601265 594.702454,105.186684 594.702454,109.898445 
	C600.609802,110.168610 606.349121,110.431084 612.001770,111.664368 
	C611.994263,115.996910 611.842834,120.335762 612.032715,124.659637 
	C612.148010,127.284523 611.295471,128.471207 608.663086,129.099350 
	C592.236877,133.018967 577.442810,125.986427 574.726379,108.035881 
	C571.945251,89.657555 580.509460,75.070549 597.270081,72.528259 
	C603.631531,71.563347 610.408325,73.337395 617.477783,74.078606 
	C617.651855,74.052658 617.825928,74.026718 618.361389,74.147591 
	C618.361389,74.147591 618.750610,74.122017 619.168396,74.609978 
	C619.778992,74.744186 620.389587,74.878403 621.304565,75.181671 
	C621.304565,75.181671 621.652466,75.167671 622.073608,75.733055 
	C623.551758,76.312172 625.029907,76.891289 626.858398,77.607666 
	C626.858398,72.331383 626.958191,67.550423 626.774475,62.780407 
	C626.737610,61.822918 625.622437,60.906967 624.694153,59.803432 
	C624.694153,59.803432 624.342407,59.835056 623.901917,59.344318 
	C623.268066,59.235249 622.634155,59.126179 621.254395,58.768501 
	C609.961670,55.840153 598.554626,55.377880 587.277405,58.359509 
	C564.400024,64.408173 551.002136,86.774086 555.435852,110.942001 
	C558.893005,129.787292 569.804016,141.294510 587.853088,144.711761 
	C597.597839,146.556747 607.348999,146.029022 617.682007,143.526199 
	C619.833374,142.719498 621.984741,141.912796 624.063477,141.049637 
	C624.063477,141.049637 624.060791,141.141617 624.729736,141.118011 
M734.069641,203.184998 
	C729.351074,202.802750 724.632568,202.420502 719.755188,201.131317 
	C719.755188,198.885544 719.755188,196.639771 719.755188,193.662140 
	C724.558533,193.662140 728.777466,193.662140 732.996338,193.662140 
	C733.009460,193.041229 733.022644,192.420319 733.035767,191.799393 
	C728.673218,191.618439 724.310608,191.437485 719.995667,191.066467 
	C719.995667,191.066467 719.802185,191.035385 719.748352,190.111771 
	C719.748352,188.188293 719.748352,186.264832 719.748352,183.884460 
	C724.450012,183.884460 728.711853,183.884460 733.560852,183.990005 
	C733.646057,183.649307 733.731262,183.308609 733.758667,182.170776 
	C728.014771,181.771118 722.270813,181.371460 716.066711,180.939774 
	C716.066711,189.243668 716.066711,196.610245 716.105713,204.780472 
	C717.401428,204.860458 718.697144,204.940445 720.916382,205.113907 
	C724.948608,205.090469 728.980774,205.067017 733.668884,205.125961 
	C733.821106,204.763245 733.973389,204.400528 734.069641,203.184998 
M102.981712,194.116348 
	C107.036934,194.116348 111.092155,194.116348 115.147369,194.116348 
	C115.148849,193.381592 115.150330,192.646835 115.151817,191.912079 
	C110.776215,191.912079 106.400620,191.912079 102.002937,191.047821 
	C102.015610,188.742905 102.028275,186.438004 102.960983,184.034424 
	C106.983978,184.034424 111.006973,184.034424 115.029968,184.034424 
	C114.999207,183.411179 114.968437,182.787949 114.937675,182.164703 
	C110.630333,182.164703 106.322983,182.164703 101.346016,181.999222 
	C100.890213,182.040833 100.434418,182.082443 99.436150,182.048492 
	C99.324791,182.358841 99.213432,182.669205 98.957527,183.909409 
	C98.998268,190.610886 99.039017,197.312347 99.022552,204.606796 
	C99.348671,204.739243 99.674782,204.871674 100.666374,205.148041 
	C101.112251,205.086990 101.558128,205.025925 102.925690,205.107986 
	C107.286644,205.107986 111.647598,205.107986 116.008553,205.107986 
	C115.992760,204.373505 115.976959,203.639008 115.961166,202.904526 
	C111.317055,202.904526 106.672951,202.904526 102.003159,202.031342 
	C102.021721,199.419846 102.040291,196.808365 102.981712,194.116348 
M164.927887,205.112350 
	C169.578094,205.112350 174.228302,205.112350 178.878510,205.112350 
	C178.970474,204.540817 179.062439,203.969269 179.154388,203.397736 
	C177.881882,203.030594 176.625381,202.428711 175.333847,202.340668 
	C171.570724,202.084167 167.793579,202.033188 164.097656,201.057953 
	C164.089233,198.809402 164.080795,196.560837 164.984146,194.147476 
	C169.061432,194.147476 173.138733,194.147476 177.216019,194.147476 
	C177.217834,193.373840 177.219635,192.600220 177.221451,191.826584 
	C172.827744,191.826584 168.434036,191.826584 164.084091,190.986633 
	C164.078751,188.747040 164.073410,186.507446 164.970352,184.088043 
	C169.219833,183.956573 173.469330,183.825089 177.718811,183.693604 
	C177.686432,183.172882 177.654053,182.652145 177.621674,182.131409 
	C173.091064,182.131409 168.560440,182.131409 163.352066,181.953979 
	C162.890656,182.004028 162.429230,182.054077 161.437851,182.062576 
	C161.323059,182.364624 161.208282,182.666656 160.931595,183.897476 
	C160.977875,190.605759 161.024155,197.314026 161.038132,204.608475 
	C161.362137,204.747940 161.686127,204.887405 162.667938,205.197983 
	C163.111771,205.132706 163.555588,205.067429 164.927887,205.112350 
M693.061401,185.022415 
	C693.061401,191.631271 693.061401,198.240128 693.061401,204.848969 
	C693.610535,205.081467 694.159729,205.313965 694.708862,205.546463 
	C695.355103,204.348770 696.497192,203.177765 696.563293,201.948822 
	C696.884277,195.986099 696.916626,190.007828 697.897156,184.045044 
	C700.053406,183.907532 702.209717,183.770020 704.365967,183.632523 
	C704.326965,183.129242 704.287903,182.625961 704.248901,182.122681 
	C701.512695,182.122681 698.776550,182.122681 695.282043,181.930130 
	C694.507874,181.994431 693.733643,182.058716 692.066284,182.041107 
	C689.708130,182.041107 687.349976,182.041107 684.991821,182.041107 
	C685.001709,182.727753 685.011536,183.414398 685.021362,184.101044 
	C687.674072,184.101044 690.326721,184.101044 693.061401,185.022415 
M293.706940,182.282852 
	C292.744293,182.544922 291.781616,182.806992 290.547607,183.964401 
	C290.547607,190.879562 290.547607,197.794724 290.547607,204.865906 
	C295.643555,204.865906 300.461182,204.865906 306.562714,204.865906 
	C302.497070,200.213715 297.733978,203.535461 293.662598,201.289154 
	C293.662598,195.419128 293.662598,189.175583 293.706940,182.282852 
M572.970459,194.105377 
	C576.971252,194.105377 580.972046,194.105377 584.972900,194.105377 
	C585.020508,193.393829 585.068054,192.682266 585.115662,191.970718 
	C580.737976,191.680679 576.360352,191.390625 572.040894,190.192169 
	C572.040894,188.267700 572.040894,186.343231 572.040894,184.686249 
	C576.805603,182.838531 582.057739,186.152084 585.911377,182.543991 
	C585.848755,181.972427 585.786194,181.400864 585.723572,180.829300 
	C580.193604,181.236969 574.663696,181.644623 568.941956,182.504745 
	C568.941956,182.504745 569.024231,182.989243 568.828430,183.909912 
	C568.885925,190.606750 568.943420,197.303589 568.980286,204.605057 
	C569.322998,204.742767 569.665710,204.880478 570.924561,205.199051 
	C575.616577,205.132111 580.308533,205.065170 585.763184,204.850021 
	C585.530396,204.055298 585.297607,203.260574 584.287354,202.202454 
	C580.272766,202.202454 576.258240,202.202454 572.053040,202.202454 
	C572.053040,199.088547 572.053040,196.655273 572.970459,194.105377 
M535.977661,204.607635 
	C536.317993,204.737076 536.658325,204.866531 537.896362,205.164658 
	C540.940613,205.075745 543.984802,204.986832 547.496277,204.978302 
	C547.496277,204.978302 547.940491,204.812515 548.648010,204.840485 
	C552.406616,203.475174 554.560608,200.776382 555.145142,196.855972 
	C556.920898,184.945221 551.933044,178.599686 535.939270,182.496674 
	C535.972961,182.659912 536.006592,182.823151 535.852661,183.908859 
	C535.908264,190.607941 535.963867,197.307022 535.977661,204.607635 
M66.002510,182.498001 
	C66.002510,182.498001 66.090225,182.969208 65.927963,183.897858 
	C65.977661,190.606430 66.027367,197.314987 66.042198,204.605087 
	C66.361732,204.737457 66.681274,204.869827 67.898087,205.171844 
	C70.941490,205.083817 73.984894,204.995804 77.495903,204.992432 
	C77.495903,204.992432 77.950012,204.852371 78.666695,204.918518 
	C80.820396,202.629684 83.805397,200.690460 84.946991,197.975967 
	C87.035049,193.010941 86.600945,187.528961 82.301315,183.814163 
	C77.614662,179.765030 71.784363,180.690598 66.002510,182.498001 
M770.098328,203.081696 
	C770.039551,196.381027 769.980835,189.680344 770.027405,182.497665 
	C770.027405,182.497665 769.810669,182.054428 769.592651,181.361832 
	C767.129578,180.793716 765.660522,181.365494 764.830322,184.146530 
	C763.202820,189.598511 761.109436,194.911407 758.885132,201.196487 
	C756.768799,195.006744 754.773926,189.964203 753.362061,184.763428 
	C752.427795,181.322266 750.769104,180.493118 747.198853,181.796402 
	C747.198853,188.827515 747.128357,195.960495 747.297119,203.087830 
	C747.316101,203.887726 748.689575,204.655533 749.434875,205.438232 
	C749.812744,205.219101 750.190552,204.999985 750.568420,204.780853 
	C750.568420,199.559570 750.568420,194.338287 750.568420,189.117004 
	C753.079956,193.197235 754.438538,197.531982 756.090332,201.752045 
	C756.600525,203.055786 757.908997,204.047104 758.851990,205.181442 
	C759.660583,204.100662 760.744934,203.130020 761.228455,201.919434 
	C763.022339,197.428116 764.618225,192.857788 766.288513,188.317139 
	C766.573914,188.396332 766.859375,188.475525 767.144775,188.554703 
	C767.144775,193.711060 767.144775,198.867401 767.198669,204.737488 
	C768.115356,204.494843 769.031982,204.252213 770.098328,203.081696 
M662.787292,143.892120 
	C663.044495,142.318573 663.520447,140.745712 663.525391,139.171371 
	C663.579102,122.052048 663.566040,104.932487 663.547546,87.813019 
	C663.545776,86.201744 663.383545,84.590652 663.282593,82.737259 
	C657.188965,82.737259 651.465515,82.737259 645.871094,82.737259 
	C645.590637,83.305603 645.326294,83.591667 645.325562,83.878372 
	C645.278503,103.155663 645.232361,122.433083 645.300049,141.710098 
	C645.302734,142.468369 646.409058,143.222763 647.928284,144.083633 
	C652.618469,144.049332 657.308716,144.015030 662.787292,143.892120 
M424.105408,59.019581 
	C419.059296,59.068554 414.013184,59.117531 408.414734,59.081566 
	C408.289673,59.384510 408.164612,59.687454 407.835663,60.909626 
	C407.890198,88.273026 407.944733,115.636429 407.935699,143.594879 
	C408.284912,143.710327 408.634155,143.825760 409.911499,144.096603 
	C425.612579,144.044800 441.313690,143.992981 457.640198,143.985413 
	C457.783905,143.649185 457.927612,143.312958 458.260803,142.069595 
	C458.180939,138.048401 458.101074,134.027206 458.067993,129.439072 
	C457.726929,129.347717 457.385895,129.256363 456.113647,129.007050 
	C446.185547,129.007050 436.257477,129.007050 425.910004,129.007050 
	C425.910004,105.585854 425.910004,82.784836 425.974396,59.445751 
	C425.660706,59.352989 425.346985,59.260223 424.105408,59.019581 
M302.459076,142.032333 
	C302.473358,139.699219 302.747253,137.333572 302.459808,135.038254 
	C300.584686,120.064995 304.664429,106.723763 312.236420,93.843796 
	C318.751099,82.762421 324.075287,70.981163 330.186890,58.997555 
	C324.044495,58.997555 318.586243,58.880180 313.140839,59.092113 
	C311.989288,59.136932 310.309387,60.120247 309.846222,61.121414 
	C304.466919,72.749062 299.274536,84.463173 294.210480,95.757668 
	C289.591736,85.076447 284.809937,73.809731 279.787689,62.651234 
	C279.113861,61.154125 277.288513,59.255886 275.890076,59.164135 
	C269.969177,58.775688 264.008148,58.999443 257.507965,58.999443 
	C258.280670,60.832951 258.777863,62.194294 259.411591,63.488819 
	C266.775909,78.531860 274.281097,93.507935 281.442230,108.646828 
	C282.935059,111.802727 283.734100,115.527229 283.882111,119.030701 
	C284.230804,127.284149 283.993866,135.562347 283.993866,143.867996 
	C290.077240,143.867996 295.551544,143.867996 301.690338,143.935486 
	C301.865814,143.602036 302.041290,143.268570 302.459076,142.032333 
M158.286789,143.041199 
	C158.232391,132.705765 158.178009,122.370331 158.195816,111.497581 
	C158.112656,111.337143 158.029495,111.176697 157.433136,110.362083 
	C152.055481,110.362083 146.677811,110.362083 140.844604,110.362083 
	C140.844604,112.723022 140.938950,114.670502 140.824646,116.605667 
	C140.597992,120.442940 140.256195,124.273422 139.501083,128.035995 
	C139.501083,128.035995 139.040878,128.111206 138.109833,127.954109 
	C120.182518,127.954109 102.255196,127.954109 84.183861,127.954109 
	C84.183861,108.752274 84.183861,90.178642 84.183861,71.396271 
	C103.114891,71.396271 121.813057,71.396271 140.999115,71.396271 
	C140.999115,77.277435 140.999115,82.855591 140.999115,89.261047 
	C147.014328,88.813309 152.501053,88.404900 158.202393,87.498833 
	C158.175201,87.320236 158.148010,87.141632 158.285889,86.041817 
	C158.231476,75.708939 158.177078,65.376060 158.065689,54.310394 
	C157.663620,54.102028 157.261536,53.893661 155.954163,53.499622 
	C126.098396,53.499622 96.242630,53.499622 66.304764,53.499622 
	C66.304764,84.631798 66.304764,114.991600 66.304764,145.596252 
	C67.374557,145.691681 68.173027,145.824875 68.971550,145.825211 
	C97.587799,145.837021 126.204063,145.845428 154.820236,145.801834 
	C155.868912,145.800232 156.916809,145.272568 158.200012,144.500320 
	C158.174454,144.321075 158.148880,144.141846 158.286789,143.041199 
M751.696838,136.145142 
	C750.802979,138.594009 749.909180,141.042862 748.813110,144.045578 
	C754.593323,144.045578 759.771301,144.414856 764.846130,143.852768 
	C766.717041,143.645584 769.033813,141.584457 769.936279,139.767441 
	C771.685059,136.246826 772.842041,132.361954 773.738342,128.510300 
	C774.472473,125.355286 775.850830,124.240356 779.146362,124.376144 
	C785.800720,124.650352 792.516968,124.923363 799.126892,124.316483 
	C804.825623,123.793266 807.510437,125.648399 808.691101,131.215469 
	C809.605042,135.524963 810.444458,141.237091 813.423340,143.335495 
	C816.460266,145.474808 822.070007,144.015976 826.553711,144.034103 
	C832.667847,144.058807 832.846252,143.792953 830.858459,138.253174 
	C821.858154,113.169952 812.790466,88.110588 803.916199,62.982887 
	C802.776794,59.756523 801.215149,58.665264 797.843384,58.918556 
	C793.369324,59.254658 788.831665,59.257191 784.357971,58.918385 
	C780.945984,58.659988 779.436279,59.821690 778.279663,63.046383 
	C769.614868,87.204338 760.742432,111.287804 751.696838,136.145142 
M219.560776,56.927574 
	C216.983124,57.526539 214.356812,57.968971 211.836502,58.752384 
	C202.441879,61.672585 195.649673,67.310600 194.034088,77.481003 
	C192.271103,88.579330 196.877594,96.951111 206.214066,102.753815 
	C209.567642,104.838081 213.298462,106.311157 216.836334,108.104202 
	C220.664658,110.044464 224.697296,111.693840 228.230865,114.077728 
	C233.813538,117.844040 234.388016,124.282196 229.538254,127.871628 
	C223.924927,132.026199 217.291336,132.001114 210.968353,130.372787 
	C205.345337,128.924713 200.025314,126.300095 193.999908,123.974091 
	C193.999908,128.362900 194.313690,132.653015 193.904861,136.873138 
	C193.550507,140.531021 195.317459,141.924072 198.310150,142.835693 
	C210.036499,146.407745 221.908356,146.975983 233.734604,143.793594 
	C246.601425,140.331223 252.934875,131.081497 251.996170,117.804680 
	C251.362061,108.835960 246.253113,102.742218 238.691895,98.614677 
	C232.161957,95.050079 225.361786,91.983215 218.793274,88.485573 
	C215.242294,86.594711 212.495926,83.627647 213.153717,79.324158 
	C213.843475,74.811501 217.533463,73.072266 221.603683,71.965675 
	C228.872025,69.989609 235.730362,71.551933 242.555908,73.998055 
	C244.236847,74.600464 246.055222,74.819313 248.185013,75.298836 
	C248.185013,70.584084 248.147858,66.763878 248.198242,62.944828 
	C248.231033,60.459583 247.458527,58.780651 244.661346,58.595474 
	C236.584579,58.060787 228.510742,57.482071 219.560776,56.927574 
M697.974915,115.271049 
	C693.376282,103.079086 693.387695,91.069336 702.515808,81.161095 
	C714.223694,68.452576 728.447205,71.594727 742.926086,77.070404 
	C742.926086,72.228600 742.771912,67.616814 742.984497,63.021992 
	C743.110107,60.305660 742.136169,59.048206 739.496887,58.697369 
	C734.572754,58.042786 729.687195,56.859459 724.748291,56.596336 
	C706.565125,55.627613 691.349915,61.766685 682.248718,78.006271 
	C673.012085,94.487411 672.792114,111.888245 682.815613,128.250595 
	C693.012756,144.896362 724.102661,151.781723 741.088074,141.808685 
	C741.987671,141.280441 742.799622,139.816711 742.844177,138.754578 
	C743.036072,134.178833 742.926208,129.590424 742.926208,124.402809 
	C740.819458,125.334053 739.360168,126.013489 737.874878,126.630440 
	C721.259827,133.532104 706.128235,129.466629 697.974915,115.271049 
M119.171570,88.604874 
	C113.384331,88.604874 107.597092,88.604874 101.546204,88.604874 
	C101.546204,96.083328 101.546204,102.986923 101.546204,110.138046 
	C108.740723,110.138046 115.766724,110.138046 123.067078,110.138046 
	C123.067078,103.622147 123.193245,97.467682 122.934113,91.329475 
	C122.894203,90.384178 121.082748,89.513664 119.171570,88.604874 
M380.752594,188.122589 
	C379.304443,192.140808 377.856262,196.159012 376.027496,201.233322 
	C373.878601,194.918930 371.886169,189.855392 370.472778,184.635101 
	C369.517670,181.107559 367.775269,180.579941 364.838928,181.666046 
	C364.838928,189.583206 364.838928,197.279877 364.838928,204.976532 
	C365.426117,205.057251 366.013306,205.137955 366.600494,205.218674 
	C369.399963,200.059189 366.565186,193.871140 368.378479,187.627106 
	C370.203918,192.963608 371.691406,197.615067 373.426025,202.172424 
	C373.866455,203.329651 375.093353,204.187531 375.958893,205.182938 
	C376.792511,204.136627 377.938660,203.212585 378.404236,202.022324 
	C380.171722,197.503723 381.719025,192.899017 383.348663,188.326523 
	C383.662292,188.384109 383.975952,188.441696 384.289581,188.499283 
	C384.289581,193.990051 384.289581,199.480835 384.289581,205.282700 
	C387.513245,202.942459 388.322449,193.573608 386.777039,181.611557 
	C383.022644,181.416656 383.022644,181.416656 380.752594,188.122589 
M661.663574,55.788193 
	C659.533569,54.963612 657.463745,53.714180 655.261108,53.402267 
	C650.576660,52.738903 646.070190,55.631050 644.628906,59.842812 
	C643.143799,64.182510 644.568970,67.704247 648.131287,70.310165 
	C652.204712,73.290024 658.907532,72.657417 662.360901,69.165718 
	C665.931519,65.555458 665.904419,61.284569 661.663574,55.788193 
M261.741241,181.838516 
	C255.520096,185.539505 253.316986,191.726898 255.860016,198.355911 
	C257.940094,203.778122 262.936493,206.575165 268.523224,205.444946 
	C275.185516,204.097168 279.116760,197.794479 277.714233,190.709686 
	C276.214966,183.136169 271.156311,180.082901 261.741241,181.838516 
M447.210480,198.603378 
	C443.852783,193.660294 440.587708,188.649902 437.076202,183.818588 
	C436.126373,182.511749 434.430634,181.747086 432.280853,180.137161 
	C432.280853,189.402374 432.280853,197.151947 432.280853,204.901505 
	C437.310547,199.916931 433.724579,193.437210 435.533539,187.907196 
	C441.304108,192.910995 442.702454,201.849136 451.024597,205.983932 
	C451.024597,197.767731 451.076965,190.786880 450.957306,183.808975 
	C450.942627,182.951904 450.008057,182.110611 449.499786,181.262039 
	C448.983978,182.101456 448.049500,182.927261 448.021729,183.782547 
	C447.864960,188.605804 447.925964,193.436142 447.210480,198.603378 
M497.602753,182.874527 
	C496.578400,183.941452 495.362122,184.882538 494.564880,186.098373 
	C491.940857,190.099854 492.149445,197.323334 495.031555,201.171921 
	C497.747467,204.798584 501.509949,206.194122 505.960785,205.502121 
	C510.450531,204.804092 513.672241,202.253403 514.854004,197.895447 
	C516.205017,192.913467 516.049622,187.858185 511.996521,184.016205 
	C507.938934,180.169983 503.146973,180.039673 497.602753,182.874527 
M199.184021,187.271042 
	C197.043549,185.184418 196.964661,180.631668 192.396393,181.390793 
	C192.396393,189.349182 192.396393,197.154800 192.396393,204.960403 
	C192.855377,205.002731 193.314362,205.045074 193.773346,205.087418 
	C196.510895,199.705978 194.112701,193.546570 195.320801,187.831436 
	C201.082092,193.021149 202.579575,201.874115 210.524551,205.857452 
	C211.933167,190.452545 211.208878,182.575897 207.942612,181.142899 
	C207.942612,187.034851 207.942612,192.731186 207.942612,198.427505 
	C207.628662,198.522552 207.314697,198.617584 207.000748,198.712631 
	C204.538864,195.093872 202.076996,191.475128 199.184021,187.271042 
M136.780975,183.991592 
	C140.125427,185.209518 143.469894,186.427444 147.134064,187.761795 
	C144.979401,181.615234 139.905075,179.116196 134.392456,181.752533 
	C132.417908,182.696838 130.330139,185.435501 130.163437,187.505707 
	C130.022415,189.257004 132.209137,191.838104 134.036285,192.944016 
	C136.355072,194.347504 139.442825,194.414307 142.014160,195.496628 
	C143.180527,195.987564 144.603973,197.518402 144.630188,198.608292 
	C144.656998,199.723175 143.344864,201.245834 142.218384,201.941666 
	C138.976318,203.944275 134.729492,202.544144 132.269440,199.185333 
	C131.693481,198.398941 130.473190,198.084473 129.549332,197.552887 
	C129.562378,198.605118 129.257263,199.794708 129.642212,200.686386 
	C131.548798,205.102722 138.657776,207.410370 143.433548,204.661758 
	C145.434189,203.510345 147.611313,200.726425 147.645065,198.651169 
	C147.677704,196.644104 145.427414,194.071335 143.499756,192.710449 
	C141.593002,191.364319 138.744812,191.436111 136.486298,190.472015 
	C135.143585,189.898834 133.350403,188.617340 133.221130,187.487152 
	C133.104111,186.464142 134.970139,185.214279 136.780975,183.991592 
M415.154358,205.194397 
	C416.485260,204.657654 417.816162,204.120911 419.147034,203.584183 
	C418.999786,203.057693 418.852509,202.531219 418.705261,202.004730 
	C413.990143,202.004730 409.275055,202.004730 404.666687,202.004730 
	C404.666687,199.144089 404.666687,196.870438 404.666687,193.849915 
	C409.210083,193.849915 413.499237,193.849915 417.788391,193.849915 
	C417.830536,193.159561 417.872681,192.469223 417.914825,191.778870 
	C413.462921,191.512451 409.011017,191.246033 404.745209,190.990753 
	C404.745209,188.493210 404.745209,186.421448 404.745209,184.498734 
	C409.551086,184.090790 413.994568,183.713608 418.438049,183.336426 
	C418.376526,182.747696 418.315002,182.158951 418.253479,181.570206 
	C412.610779,181.570206 406.968109,181.570206 401.394836,181.570206 
	C401.394836,189.613632 401.394836,197.330322 401.394836,205.194321 
	C405.902954,205.194321 410.059174,205.194321 415.154358,205.194397 
M658.957153,199.598648 
	C657.980286,198.811432 657.003357,198.024231 656.026489,197.237015 
	C657.443359,205.078171 665.179688,207.920380 670.991760,204.128326 
	C675.469116,201.207108 675.250183,195.348633 670.446594,192.947037 
	C668.557129,192.002396 666.247681,191.874146 664.402222,190.871872 
	C662.485962,189.831146 660.899536,188.182968 659.168884,186.800430 
	C661.403992,185.863846 663.577515,184.506454 665.899963,184.166611 
	C667.077148,183.994370 668.514343,185.672821 669.850342,186.487610 
	C670.828674,187.084229 671.833801,187.636963 673.568542,188.636536 
	C671.654846,181.905975 666.422546,179.127380 660.934082,181.615555 
	C658.882996,182.545425 656.481506,185.209412 656.374756,187.197372 
	C656.273254,189.087784 658.584106,191.710190 660.515259,192.950394 
	C662.780334,194.404999 665.879761,194.492432 668.416077,195.623871 
	C669.529846,196.120728 670.815186,197.743317 670.799133,198.836761 
	C670.783081,199.926712 669.449219,201.404861 668.318604,201.994064 
	C664.978821,203.734421 661.912048,202.777115 658.957153,199.598648 
M619.348267,191.973389 
	C618.069885,191.639328 616.717102,191.469788 615.530273,190.933273 
	C613.672668,190.093521 611.857971,189.100571 610.219604,187.905853 
	C610.008423,187.751801 610.778870,185.281830 611.399719,185.129639 
	C613.702881,184.565094 616.144653,184.292709 618.510681,184.406006 
	C619.340332,184.445724 620.031250,186.002533 620.914734,186.703812 
	C621.729736,187.350754 622.718018,187.779495 624.220581,188.644257 
	C622.827759,181.931854 617.214661,178.984818 611.598083,181.722885 
	C609.601990,182.695969 607.479553,185.396515 607.291870,187.477753 
	C607.135681,189.209808 609.361023,191.791199 611.194458,192.907944 
	C613.502808,194.313980 616.577148,194.397400 619.136475,195.485550 
	C620.306702,195.983109 621.875427,197.621445 621.760742,198.558487 
	C621.602844,199.848755 620.253967,201.552277 619.006287,202.046661 
	C615.058533,203.610901 611.570679,202.981781 609.363281,198.768692 
	C609.021301,198.116043 607.948914,197.846024 607.214355,197.399063 
	C606.926270,198.178543 606.219116,199.090607 606.417053,199.716248 
	C607.840393,204.213455 611.511536,205.631516 615.720703,205.699142 
	C619.729370,205.763550 623.509216,204.630157 624.809753,200.290955 
	C626.032043,196.212936 623.687195,193.718521 619.348267,191.973389 
M818.957336,185.305222 
	C823.705200,181.079422 827.514893,186.357330 832.130371,187.283478 
	C829.574402,181.376587 824.507202,179.122223 819.405884,181.779739 
	C817.438904,182.804504 815.375793,185.532532 815.241882,187.606323 
	C815.129517,189.346039 817.408264,191.844238 819.259460,192.954102 
	C821.581787,194.346497 824.643860,194.443604 827.193054,195.547089 
	C828.340271,196.043701 829.693970,197.609650 829.717407,198.716599 
	C829.740356,199.799347 828.410217,201.292892 827.289368,201.946335 
	C823.896179,203.924469 819.920166,202.586990 817.427063,199.158524 
	C816.807617,198.306671 815.609741,197.875443 814.677734,197.250885 
	C816.131592,205.146271 824.585510,208.094635 830.228821,203.909317 
	C834.342468,200.858444 834.011658,195.263489 829.347961,192.953720 
	C827.027344,191.804382 824.295837,191.513962 821.813354,190.653122 
	C819.647583,189.902084 817.070618,189.250183 818.957336,185.305222 
M789.553589,184.039719 
	C787.023376,190.585541 784.493164,197.131363 781.963013,203.677170 
	C782.484802,204.009964 783.006592,204.342758 783.528442,204.675552 
	C785.000122,202.613586 786.471863,200.551636 788.143433,198.209686 
	C793.651917,197.346176 799.391235,196.978149 800.988892,205.700439 
	C801.980164,203.926483 802.532959,202.522766 802.140564,201.471985 
	C799.883667,195.427872 797.540161,189.406921 794.940430,183.503906 
	C793.630066,180.528656 791.667358,179.649994 789.553589,184.039719 
M318.753906,195.884293 
	C319.689087,198.351959 320.502747,200.876984 321.625641,203.256012 
	C322.016052,204.083206 323.173737,205.044296 323.977112,205.040848 
	C324.778992,205.037415 325.972656,204.065750 326.312866,203.238281 
	C329.238068,196.123581 332.008698,188.945343 335.174377,180.899277 
	C329.279114,182.158997 330.081573,187.032578 328.520264,190.050522 
	C326.769958,193.433746 325.724487,197.181641 323.957428,201.872269 
	C321.531067,195.139084 319.649750,189.570465 317.469818,184.121307 
	C316.945190,182.809860 315.430481,181.894501 314.371063,180.796997 
	C314.006134,181.128159 313.641205,181.459335 313.276276,181.790497 
	C314.974121,186.260956 316.671967,190.731415 318.753906,195.884293 
M235.009155,197.401474 
	C234.544891,198.577438 234.080627,199.753403 233.293076,201.748215 
	C231.678787,197.294357 230.322433,193.597641 228.998230,189.889450 
	C226.069626,181.688446 226.076233,181.686081 222.620819,181.844879 
	C225.407471,189.034256 228.101929,196.127609 230.953506,203.157242 
	C231.297012,204.004074 232.485321,205.017670 233.292542,205.026779 
	C234.136566,205.036301 235.439819,204.106186 235.774231,203.277023 
	C238.654831,196.135117 241.361633,188.923141 244.120270,181.732071 
	C243.691284,181.420471 243.262314,181.108871 242.833328,180.797272 
	C241.886520,181.910217 240.598099,182.878922 240.055954,184.162750 
	C238.320129,188.273209 236.860733,192.500412 235.009155,197.401474 
M469.654541,181.217590 
	C467.424591,181.447922 465.194672,181.678238 462.964722,181.908569 
	C463.034607,182.596191 463.104492,183.283813 463.174408,183.971436 
	C465.692993,183.971436 468.211578,183.971436 471.053741,183.971436 
	C471.053741,191.339859 471.053741,198.121475 471.053741,204.903076 
	C472.051086,205.050552 473.048462,205.198013 474.045807,205.345490 
	C474.550598,198.386536 473.963928,191.243103 474.340668,184.760971 
	C477.348572,184.059753 479.754456,183.498871 482.160339,182.937988 
	C482.064819,182.364532 481.969299,181.791092 481.873779,181.217651 
	C478.117340,181.217651 474.360901,181.217651 469.654541,181.217590 
M641.989990,192.519653 
	C641.989563,189.519836 642.113220,186.511353 641.904724,183.526093 
	C641.850037,182.743134 640.765076,182.032166 640.153259,181.288116 
	C639.708618,182.021103 638.887817,182.748947 638.877686,183.487885 
	C638.780273,190.607361 638.819397,197.728683 638.819397,204.849487 
	C639.297058,205.069351 639.774780,205.289215 640.252441,205.509094 
	C640.831238,204.507385 641.830322,203.537613 641.909241,202.497971 
	C642.135742,199.515320 641.989624,196.504379 641.989990,192.519653 
M347.032867,183.939575 
	C347.033020,189.931549 346.958069,195.925293 347.097687,201.914017 
	C347.125122,203.090332 347.981567,204.247314 348.455688,205.413208 
	C349.015564,205.232819 349.575470,205.052414 350.135345,204.872009 
	C350.135345,197.757950 350.172974,190.643402 350.079895,183.530563 
	C350.070099,182.779968 349.291656,182.039444 348.869781,181.294266 
	C348.258362,181.873093 347.646973,182.451904 347.032867,183.939575 
z"/>
<path fill="#FFCD2C" opacity="1.000000" stroke="none" 
	d="
M158.123611,112.034897 
	C158.178009,122.370331 158.232391,132.705765 158.021317,143.579834 
	C157.668045,144.215546 157.488052,144.368866 157.507385,144.400558 
	C157.636154,144.611572 157.807526,144.796585 157.965057,144.990051 
	C156.916809,145.272568 155.868912,145.800232 154.820236,145.801834 
	C126.204063,145.845428 97.587799,145.837021 68.971550,145.825211 
	C68.173027,145.824875 67.374557,145.691681 66.304764,145.596252 
	C66.304764,114.991600 66.304764,84.631798 66.304764,53.499622 
	C96.242630,53.499622 126.098396,53.499622 156.546906,53.881966 
	C157.467316,54.523933 157.794983,54.783562 158.122681,55.043190 
	C158.177078,65.376060 158.231476,75.708939 158.019287,86.582794 
	C157.666718,87.223740 157.489395,87.383080 157.509552,87.414101 
	C157.645599,87.623421 157.823456,87.805565 157.987778,87.996498 
	C152.501053,88.404900 147.014328,88.813309 140.999115,89.261047 
	C140.999115,82.855591 140.999115,77.277435 140.999115,71.396271 
	C121.813057,71.396271 103.114891,71.396271 84.183861,71.396271 
	C84.183861,90.178642 84.183861,108.752274 84.183861,127.954109 
	C102.255196,127.954109 120.182518,127.954109 138.652390,128.191879 
	C139.450638,128.322006 139.706329,128.214355 139.962006,128.106705 
	C140.256195,124.273422 140.597992,120.442940 140.824646,116.605667 
	C140.938950,114.670502 140.844604,112.723022 140.844604,110.362083 
	C146.677811,110.362083 152.055481,110.362083 157.528656,110.799286 
	C157.790649,111.502625 157.957123,111.768761 158.123611,112.034897 
z"/>
<path fill="#373435" opacity="1.000000" stroke="none" 
	d="
M544.981323,107.993896 
	C544.178650,125.510139 531.825562,139.678421 512.059998,144.667679 
	C505.904602,144.573196 500.453735,144.755722 495.002838,144.938232 
	C494.548279,144.922897 494.093689,144.907547 493.262573,144.453735 
	C491.927185,143.962219 490.968353,143.909149 490.009552,143.856079 
	C489.490723,143.684570 488.971893,143.513062 488.031647,142.936859 
	C487.024048,142.396530 486.437836,142.260880 485.851654,142.125244 
	C485.851654,142.125244 485.929443,142.065948 485.767944,141.836838 
	C485.007477,141.463043 484.408508,141.318359 483.809570,141.173691 
	C483.809570,141.173691 483.902496,141.124542 483.749878,140.881683 
	C482.990601,140.457916 482.383942,140.277023 481.777313,140.096130 
	C467.711273,131.985306 462.049408,119.239418 461.732819,103.596756 
	C461.349945,84.680855 467.483948,68.748085 485.486725,60.577976 
	C510.584534,49.187946 540.453979,60.395184 544.741699,92.897385 
	C544.607605,98.401802 544.794495,103.197853 544.981323,107.993896 
M519.982300,79.578995 
	C508.849182,68.201416 491.441620,70.504738 484.561523,84.663200 
	C479.269287,95.554031 479.381653,106.900070 484.613678,117.865303 
	C488.484436,125.977623 495.348358,129.991699 504.302979,129.753281 
	C513.702515,129.503006 520.737793,124.857368 523.752625,116.004395 
	C527.923157,103.757668 527.859070,91.517296 519.982300,79.578995 
z"/>
<path fill="#373435" opacity="1.000000" stroke="none" 
	d="
M616.985474,143.641785 
	C607.348999,146.029022 597.597839,146.556747 587.853088,144.711761 
	C569.804016,141.294510 558.893005,129.787292 555.435852,110.942001 
	C551.002136,86.774086 564.400024,64.408173 587.277405,58.359509 
	C598.554626,55.377880 609.961670,55.840153 621.862427,59.123489 
	C623.094482,59.597332 623.718445,59.716194 624.342407,59.835052 
	C624.342407,59.835056 624.694153,59.803432 624.882324,60.355530 
	C625.063660,64.490669 625.354126,68.112457 624.894714,71.636490 
	C624.725769,72.932426 622.785034,73.997368 621.652466,75.167671 
	C621.652466,75.167671 621.304565,75.181671 620.932007,74.863129 
	C619.956482,74.403732 619.353516,74.262878 618.750610,74.122017 
	C618.750610,74.122017 618.361389,74.147591 618.095459,73.928711 
	C617.551636,73.760902 617.273743,73.811981 616.995850,73.863060 
	C610.408325,73.337395 603.631531,71.563347 597.270081,72.528259 
	C580.509460,75.070549 571.945251,89.657555 574.726379,108.035881 
	C577.442810,125.986427 592.236877,133.018967 608.663086,129.099350 
	C611.295471,128.471207 612.148010,127.284523 612.032715,124.659637 
	C611.842834,120.335762 611.994263,115.996910 611.901978,110.815033 
	C607.918335,109.649338 604.016602,108.936317 600.155151,109.111511 
	C594.645874,109.361458 596.127991,105.591942 596.014465,102.729263 
	C595.898132,99.795120 595.210144,96.691818 600.200989,96.900093 
	C608.331970,97.239426 616.492188,97.153175 624.630493,96.917679 
	C628.258423,96.812706 629.119751,98.200462 629.076294,101.563766 
	C628.915222,114.028793 629.003662,126.497040 628.998413,138.964081 
	C628.322083,139.352341 627.645752,139.740585 626.328491,140.116699 
	C625.145264,140.450226 624.603027,140.795929 624.060791,141.141632 
	C624.060791,141.141617 624.063477,141.049637 623.705383,141.045731 
	C621.226685,141.908478 619.106079,142.775116 616.985474,143.641785 
z"/>
<path fill="#373435" opacity="1.000000" stroke="none" 
	d="
M751.815918,135.769867 
	C760.742432,111.287804 769.614868,87.204338 778.279663,63.046383 
	C779.436279,59.821690 780.945984,58.659988 784.357971,58.918385 
	C788.831665,59.257191 793.369324,59.254658 797.843384,58.918556 
	C801.215149,58.665264 802.776794,59.756523 803.916199,62.982887 
	C812.790466,88.110588 821.858154,113.169952 830.858459,138.253174 
	C832.846252,143.792953 832.667847,144.058807 826.553711,144.034103 
	C822.070007,144.015976 816.460266,145.474808 813.423340,143.335495 
	C810.444458,141.237091 809.605042,135.524963 808.691101,131.215469 
	C807.510437,125.648399 804.825623,123.793266 799.126892,124.316483 
	C792.516968,124.923363 785.800720,124.650352 779.146362,124.376144 
	C775.850830,124.240356 774.472473,125.355286 773.738342,128.510300 
	C772.842041,132.361954 771.685059,136.246826 769.936279,139.767441 
	C769.033813,141.584457 766.717041,143.645584 764.846130,143.852768 
	C759.771301,144.414856 754.593323,144.045578 748.813110,144.045578 
	C749.909180,141.042862 750.802979,138.594009 751.815918,135.769867 
M795.694031,90.839424 
	C793.903137,85.169945 792.112244,79.500465 790.556030,74.574059 
	C786.937866,85.888443 783.122070,97.820702 779.297729,109.779770 
	C786.860046,109.779770 794.235291,109.779770 801.797241,109.779770 
	C799.777588,103.531204 797.851013,97.570404 795.694031,90.839424 
z"/>
<path fill="#373435" opacity="1.000000" stroke="none" 
	d="
M219.998260,56.924107 
	C228.510742,57.482071 236.584579,58.060787 244.661346,58.595474 
	C247.458527,58.780651 248.231033,60.459583 248.198242,62.944828 
	C248.147858,66.763878 248.185013,70.584084 248.185013,75.298836 
	C246.055222,74.819313 244.236847,74.600464 242.555908,73.998055 
	C235.730362,71.551933 228.872025,69.989609 221.603683,71.965675 
	C217.533463,73.072266 213.843475,74.811501 213.153717,79.324158 
	C212.495926,83.627647 215.242294,86.594711 218.793274,88.485573 
	C225.361786,91.983215 232.161957,95.050079 238.691895,98.614677 
	C246.253113,102.742218 251.362061,108.835960 251.996170,117.804680 
	C252.934875,131.081497 246.601425,140.331223 233.734604,143.793594 
	C221.908356,146.975983 210.036499,146.407745 198.310150,142.835693 
	C195.317459,141.924072 193.550507,140.531021 193.904861,136.873138 
	C194.313690,132.653015 193.999908,128.362900 193.999908,123.974091 
	C200.025314,126.300095 205.345337,128.924713 210.968353,130.372787 
	C217.291336,132.001114 223.924927,132.026199 229.538254,127.871628 
	C234.388016,124.282196 233.813538,117.844040 228.230865,114.077728 
	C224.697296,111.693840 220.664658,110.044464 216.836334,108.104202 
	C213.298462,106.311157 209.567642,104.838081 206.214066,102.753815 
	C196.877594,96.951111 192.271103,88.579330 194.034088,77.481003 
	C195.649673,67.310600 202.441879,61.672585 211.836502,58.752384 
	C214.356812,57.968971 216.983124,57.526539 219.998260,56.924107 
z"/>
<path fill="#373435" opacity="1.000000" stroke="none" 
	d="
M335.153931,140.004700 
	C335.121918,135.314102 335.089935,130.623489 335.502136,125.464218 
	C336.690643,124.971436 337.434875,124.947319 338.179138,124.923195 
	C346.902985,129.896744 356.091095,133.292862 366.089874,129.921936 
	C369.093048,128.909470 372.401794,125.977249 373.592804,123.104523 
	C375.216156,119.189026 372.218201,115.709694 368.798401,113.659790 
	C364.705261,111.206276 360.246246,109.370857 356.004059,107.155952 
	C352.199493,105.169533 348.171143,103.436760 344.765869,100.890747 
	C329.514984,89.488258 331.997681,67.538773 349.481903,60.081284 
	C357.028656,56.862392 365.046082,55.791573 373.362549,57.572906 
	C377.269257,58.409702 381.407593,58.165401 386.012421,58.937424 
	C386.987518,64.961662 387.391144,70.459496 387.794769,75.957329 
	C387.618347,75.895309 387.441956,75.833298 386.944641,75.256592 
	C386.022888,74.561401 385.421997,74.380882 384.821136,74.200363 
	C384.821136,74.200363 384.986237,73.998260 384.890381,73.936310 
	C384.794556,73.874352 384.379822,73.688179 384.379822,73.688179 
	C384.379822,73.688179 383.995972,73.969345 383.995972,73.969345 
	C376.989777,71.694199 369.967773,69.846764 362.529816,72.013557 
	C358.659027,73.141174 355.130463,74.792763 354.417084,79.117363 
	C353.705811,83.429329 356.312378,86.405006 359.835663,88.378288 
	C363.876160,90.641243 368.109436,92.557648 372.231262,94.678444 
	C375.612854,96.418373 379.059509,98.065010 382.294952,100.050201 
	C397.827728,109.580681 395.928741,133.033859 382.595490,140.166168 
	C381.654022,140.533859 381.345306,140.804855 381.036591,141.075836 
	C381.036591,141.075836 381.032593,140.999069 380.747437,141.025940 
	C379.973938,141.385376 379.485596,141.717926 378.997253,142.050476 
	C378.997253,142.050476 378.830658,142.246582 378.285278,142.180573 
	C375.487091,142.963654 373.234253,143.812729 370.981445,144.661804 
	C370.545532,144.780670 370.109589,144.899521 369.018707,144.710114 
	C358.465332,143.645813 348.566956,142.889786 338.668549,142.133759 
	C338.668549,142.133759 338.308075,142.171555 337.946533,141.848053 
	C337.194794,141.425598 336.804626,141.326645 336.414429,141.227692 
	C336.414429,141.227692 336.153656,141.242798 335.988525,140.926605 
	C335.658569,140.344055 335.435425,140.142151 335.153931,140.004700 
z"/>
<path fill="#383536" opacity="1.000000" stroke="none" 
	d="
M698.106689,115.631096 
	C706.128235,129.466629 721.259827,133.532104 737.874878,126.630440 
	C739.360168,126.013489 740.819458,125.334053 742.926208,124.402809 
	C742.926208,129.590424 743.036072,134.178833 742.844177,138.754578 
	C742.799622,139.816711 741.987671,141.280441 741.088074,141.808685 
	C724.102661,151.781723 693.012756,144.896362 682.815613,128.250595 
	C672.792114,111.888245 673.012085,94.487411 682.248718,78.006271 
	C691.349915,61.766685 706.565125,55.627613 724.748291,56.596336 
	C729.687195,56.859459 734.572754,58.042786 739.496887,58.697369 
	C742.136169,59.048206 743.110107,60.305660 742.984497,63.021992 
	C742.771912,67.616814 742.926086,72.228600 742.926086,77.070404 
	C728.447205,71.594727 714.223694,68.452576 702.515808,81.161095 
	C693.387695,91.069336 693.376282,103.079086 698.106689,115.631096 
z"/>
<path fill="#393637" opacity="1.000000" stroke="none" 
	d="
M301.025879,143.867996 
	C295.551544,143.867996 290.077240,143.867996 283.993866,143.867996 
	C283.993866,135.562347 284.230804,127.284149 283.882111,119.030701 
	C283.734100,115.527229 282.935059,111.802727 281.442230,108.646828 
	C274.281097,93.507935 266.775909,78.531860 259.411591,63.488819 
	C258.777863,62.194294 258.280670,60.832951 257.507965,58.999443 
	C264.008148,58.999443 269.969177,58.775688 275.890076,59.164135 
	C277.288513,59.255886 279.113861,61.154125 279.787689,62.651234 
	C284.809937,73.809731 289.591736,85.076447 294.210480,95.757668 
	C299.274536,84.463173 304.466919,72.749062 309.846222,61.121414 
	C310.309387,60.120247 311.989288,59.136932 313.140839,59.092113 
	C318.586243,58.880180 324.044495,58.997555 330.186890,58.997555 
	C324.075287,70.981163 318.751099,82.762421 312.236420,93.843796 
	C304.664429,106.723763 300.584686,120.064995 302.459808,135.038254 
	C302.747253,137.333572 302.473358,139.699219 302.097290,142.582977 
	C301.498993,143.378418 301.262421,143.623215 301.025879,143.867996 
z"/>
<path fill="#373435" opacity="1.000000" stroke="none" 
	d="
M457.014771,143.941162 
	C441.313690,143.992981 425.612579,144.044800 409.372559,143.784500 
	C408.628113,143.186676 408.350037,143.029160 407.999298,142.999832 
	C407.944733,115.636429 407.890198,88.273026 408.137329,60.369652 
	C408.693604,59.671177 408.869598,59.450119 408.967072,59.166504 
	C414.013184,59.117531 419.059296,59.068554 424.665894,59.277290 
	C425.402466,59.763481 425.630341,59.913086 425.910004,59.983822 
	C425.910004,82.784836 425.910004,105.585854 425.910004,129.007050 
	C436.257477,129.007050 446.185547,129.007050 456.687134,129.281448 
	C457.471252,129.778290 457.724792,129.928345 458.021179,130.006012 
	C458.101074,134.027206 458.180939,138.048401 457.922424,142.601807 
	C457.394287,143.403076 457.204529,143.672119 457.014771,143.941162 
z"/>
<path fill="#FFCC29" opacity="1.000000" stroke="none" 
	d="
M661.998901,143.980743 
	C657.308716,144.015030 652.618469,144.049332 647.459900,143.564148 
	C646.992737,126.593094 646.994141,110.141518 646.994995,93.689934 
	C646.995544,83.924019 646.999084,84.110725 656.711609,83.903030 
	C660.764099,83.816376 662.154602,84.890656 662.102234,89.143356 
	C661.877075,107.420135 662.001709,125.701225 661.998901,143.980743 
z"/>
<path fill="#FFCC29" opacity="1.000000" stroke="none" 
	d="
M119.631073,88.606720 
	C121.082748,89.513664 122.894203,90.384178 122.934113,91.329475 
	C123.193245,97.467682 123.067078,103.622147 123.067078,110.138046 
	C115.766724,110.138046 108.740723,110.138046 101.546204,110.138046 
	C101.546204,102.986923 101.546204,96.083328 101.546204,88.604874 
	C107.597092,88.604874 113.384331,88.604874 119.631073,88.606720 
z"/>
<path fill="#3C393A" opacity="1.000000" stroke="none" 
	d="
M380.848511,187.739731 
	C383.022644,181.416656 383.022644,181.416656 386.777039,181.611557 
	C388.322449,193.573608 387.513245,202.942459 384.289581,205.282700 
	C384.289581,199.480835 384.289581,193.990051 384.289581,188.499283 
	C383.975952,188.441696 383.662292,188.384109 383.348663,188.326523 
	C381.719025,192.899017 380.171722,197.503723 378.404236,202.022324 
	C377.938660,203.212585 376.792511,204.136627 375.958893,205.182938 
	C375.093353,204.187531 373.866455,203.329651 373.426025,202.172424 
	C371.691406,197.615067 370.203918,192.963608 368.378479,187.627106 
	C366.565186,193.871140 369.399963,200.059189 366.600494,205.218674 
	C366.013306,205.137955 365.426117,205.057251 364.838928,204.976532 
	C364.838928,197.279877 364.838928,189.583206 364.838928,181.666046 
	C367.775269,180.579941 369.517670,181.107559 370.472778,184.635101 
	C371.886169,189.855392 373.878601,194.918930 376.027496,201.233322 
	C377.856262,196.159012 379.304443,192.140808 380.848511,187.739731 
z"/>
<path fill="#FFCC29" opacity="1.000000" stroke="none" 
	d="
M661.971191,56.017002 
	C665.904419,61.284569 665.931519,65.555458 662.360901,69.165718 
	C658.907532,72.657417 652.204712,73.290024 648.131287,70.310165 
	C644.568970,67.704247 643.143799,64.182510 644.628906,59.842812 
	C646.070190,55.631050 650.576660,52.738903 655.261108,53.402267 
	C657.463745,53.714180 659.533569,54.963612 661.971191,56.017002 
z"/>
<path fill="#3E3B3C" opacity="1.000000" stroke="none" 
	d="
M769.922058,182.979675 
	C769.980835,189.680344 770.039551,196.381027 769.673218,203.525513 
	C768.547058,203.987473 767.845886,204.005615 767.144775,204.023773 
	C767.144775,198.867401 767.144775,193.711060 767.144775,188.554703 
	C766.859375,188.475525 766.573914,188.396332 766.288513,188.317139 
	C764.618225,192.857788 763.022339,197.428116 761.228455,201.919434 
	C760.744934,203.130020 759.660583,204.100662 758.851990,205.181458 
	C757.908997,204.047104 756.600525,203.055786 756.090332,201.752045 
	C754.438538,197.531982 753.079956,193.197235 750.568420,189.117004 
	C750.568420,194.338287 750.568420,199.559570 750.568420,204.780853 
	C750.190552,204.999985 749.812744,205.219101 749.434875,205.438232 
	C748.689575,204.655533 747.316101,203.887726 747.297119,203.087830 
	C747.128357,195.960495 747.198853,188.827515 747.198853,181.796402 
	C750.769104,180.493118 752.427795,181.322266 753.362061,184.763428 
	C754.773926,189.964203 756.768799,195.006744 758.885132,201.196487 
	C761.109436,194.911407 763.202820,189.598511 764.830322,184.146530 
	C765.660522,181.365494 767.129578,180.793716 769.556274,181.810608 
	C769.653931,182.499466 769.788025,182.739563 769.922058,182.979675 
z"/>
<path fill="#FFCE32" opacity="1.000000" stroke="none" 
	d="
M662.393066,143.936432 
	C662.001709,125.701225 661.877075,107.420135 662.102234,89.143356 
	C662.154602,84.890656 660.764099,83.816376 656.711609,83.903030 
	C646.999084,84.110725 646.995544,83.924019 646.994995,93.689934 
	C646.994141,110.141518 646.992737,126.593094 646.996338,143.511826 
	C646.409058,143.222763 645.302734,142.468369 645.300049,141.710098 
	C645.232361,122.433083 645.278503,103.155663 645.325562,83.878372 
	C645.326294,83.591667 645.590637,83.305603 645.871094,82.737259 
	C651.465515,82.737259 657.188965,82.737259 663.282593,82.737259 
	C663.383545,84.590652 663.545776,86.201744 663.547546,87.813019 
	C663.566040,104.932487 663.579102,122.052048 663.525391,139.171371 
	C663.520447,140.745712 663.044495,142.318573 662.393066,143.936432 
z"/>
<path fill="#3C393A" opacity="1.000000" stroke="none" 
	d="
M262.107147,181.674500 
	C271.156311,180.082901 276.214966,183.136169 277.714233,190.709686 
	C279.116760,197.794479 275.185516,204.097168 268.523224,205.444946 
	C262.936493,206.575165 257.940094,203.778122 255.860016,198.355911 
	C253.316986,191.726898 255.520096,185.539505 262.107147,181.674500 
M272.636963,199.852264 
	C273.263428,197.818726 274.266541,195.817230 274.442688,193.745422 
	C274.894806,188.427765 271.884705,184.373352 267.485992,183.936249 
	C263.641388,183.554184 260.624420,184.833832 259.090424,188.595261 
	C257.148804,193.356155 258.248749,198.796051 261.738617,201.292877 
	C265.363892,203.886597 268.851166,203.456284 272.636963,199.852264 
z"/>
<path fill="#393637" opacity="1.000000" stroke="none" 
	d="
M447.561615,198.433716 
	C447.925964,193.436142 447.864960,188.605804 448.021729,183.782547 
	C448.049500,182.927261 448.983978,182.101456 449.499786,181.262024 
	C450.008057,182.110611 450.942627,182.951904 450.957306,183.808975 
	C451.076965,190.786880 451.024597,197.767731 451.024597,205.983932 
	C442.702454,201.849136 441.304108,192.910995 435.533539,187.907196 
	C433.724579,193.437210 437.310547,199.916931 432.280853,204.901505 
	C432.280853,197.151947 432.280853,189.402374 432.280853,180.137161 
	C434.430634,181.747086 436.126373,182.511749 437.076202,183.818588 
	C440.587708,188.649902 443.852783,193.660294 447.561615,198.433716 
z"/>
<path fill="#383536" opacity="1.000000" stroke="none" 
	d="
M497.903931,182.626175 
	C503.146973,180.039673 507.938934,180.169983 511.996521,184.016205 
	C516.049622,187.858185 516.205017,192.913467 514.854004,197.895447 
	C513.672241,202.253403 510.450531,204.804092 505.960785,205.502121 
	C501.509949,206.194122 497.747467,204.798584 495.031555,201.171921 
	C492.149445,197.323334 491.940857,190.099854 494.564880,186.098373 
	C495.362122,184.882538 496.578400,183.941452 497.903931,182.626175 
M496.633423,197.445374 
	C499.519043,202.509277 502.850067,204.064240 507.009216,202.289001 
	C511.415863,200.408112 513.438843,195.003204 511.788788,189.519043 
	C510.566742,185.457504 506.825287,183.236572 502.470428,183.987640 
	C497.448792,184.853729 495.561371,188.744888 496.633423,197.445374 
z"/>
<path fill="#363334" opacity="1.000000" stroke="none" 
	d="
M199.399567,187.563705 
	C202.076996,191.475128 204.538864,195.093872 207.000748,198.712631 
	C207.314697,198.617584 207.628662,198.522552 207.942612,198.427505 
	C207.942612,192.731186 207.942612,187.034851 207.942612,181.142899 
	C211.208878,182.575897 211.933167,190.452545 210.524551,205.857452 
	C202.579575,201.874115 201.082092,193.021149 195.320801,187.831436 
	C194.112701,193.546570 196.510895,199.705978 193.773346,205.087418 
	C193.314362,205.045074 192.855377,205.002731 192.396393,204.960403 
	C192.396393,197.154800 192.396393,189.349182 192.396393,181.390793 
	C196.964661,180.631668 197.043549,185.184418 199.399567,187.563705 
z"/>
<path fill="#373435" opacity="1.000000" stroke="none" 
	d="
M136.371368,184.028015 
	C134.970139,185.214279 133.104111,186.464142 133.221130,187.487152 
	C133.350403,188.617340 135.143585,189.898834 136.486298,190.472015 
	C138.744812,191.436111 141.593002,191.364319 143.499756,192.710449 
	C145.427414,194.071335 147.677704,196.644104 147.645065,198.651169 
	C147.611313,200.726425 145.434189,203.510345 143.433548,204.661758 
	C138.657776,207.410370 131.548798,205.102722 129.642212,200.686386 
	C129.257263,199.794708 129.562378,198.605118 129.549332,197.552887 
	C130.473190,198.084473 131.693481,198.398941 132.269440,199.185333 
	C134.729492,202.544144 138.976318,203.944275 142.218384,201.941666 
	C143.344864,201.245834 144.656998,199.723175 144.630188,198.608292 
	C144.603973,197.518402 143.180527,195.987564 142.014160,195.496628 
	C139.442825,194.414307 136.355072,194.347504 134.036285,192.944016 
	C132.209137,191.838104 130.022415,189.257004 130.163437,187.505707 
	C130.330139,185.435501 132.417908,182.696838 134.392456,181.752533 
	C139.905075,179.116196 144.979401,181.615234 147.134064,187.761795 
	C143.469894,186.427444 140.125427,185.209518 136.371368,184.028015 
z"/>
<path fill="#3E3B3C" opacity="1.000000" stroke="none" 
	d="
M629.383057,138.880325 
	C629.003662,126.497040 628.915222,114.028793 629.076294,101.563766 
	C629.119751,98.200462 628.258423,96.812706 624.630493,96.917679 
	C616.492188,97.153175 608.331970,97.239426 600.200989,96.900093 
	C595.210144,96.691818 595.898132,99.795120 596.014465,102.729263 
	C596.127991,105.591942 594.645874,109.361458 600.155151,109.111511 
	C604.016602,108.936317 607.918335,109.649338 611.945312,110.329620 
	C606.349121,110.431084 600.609802,110.168610 594.702454,109.898445 
	C594.702454,105.186684 594.702454,100.601265 594.702454,95.670105 
	C606.512024,95.670105 618.178406,95.670105 629.767700,95.670105 
	C629.767700,110.075607 629.767700,124.436089 629.383057,138.880325 
z"/>
<path fill="#413E3F" opacity="1.000000" stroke="none" 
	d="
M77.028297,204.907776 
	C73.984894,204.995804 70.941490,205.083817 67.416069,204.831207 
	C66.648392,204.334915 66.362724,204.179245 66.077057,204.023560 
	C66.027367,197.314987 65.977661,190.606430 66.195816,183.395813 
	C66.537949,182.791565 66.696205,182.630295 66.672684,182.596863 
	C66.534218,182.399933 66.353401,182.232758 66.186852,182.055573 
	C71.784363,180.690598 77.614662,179.765030 82.301315,183.814163 
	C86.600945,187.528961 87.035049,193.010941 84.946991,197.975967 
	C83.805397,200.690460 80.820396,202.629684 78.225555,204.712082 
	C77.532372,204.639694 77.280334,204.773743 77.028297,204.907776 
M75.017700,184.095276 
	C73.109360,184.095276 71.201027,184.095276 69.338417,184.095276 
	C69.338417,190.516251 69.338417,196.262390 69.338417,201.980698 
	C78.991714,202.615402 81.095978,201.622284 82.103691,196.103729 
	C83.361671,189.214691 81.744698,186.108826 75.017700,184.095276 
z"/>
<path fill="#413E3F" opacity="1.000000" stroke="none" 
	d="
M414.684875,205.194366 
	C410.059174,205.194321 405.902954,205.194321 401.394836,205.194321 
	C401.394836,197.330322 401.394836,189.613632 401.394836,181.570206 
	C406.968109,181.570206 412.610779,181.570206 418.253479,181.570206 
	C418.315002,182.158951 418.376526,182.747696 418.438049,183.336426 
	C413.994568,183.713608 409.551086,184.090790 404.745209,184.498734 
	C404.745209,186.421448 404.745209,188.493210 404.745209,190.990753 
	C409.011017,191.246033 413.462921,191.512451 417.914825,191.778870 
	C417.872681,192.469223 417.830536,193.159561 417.788391,193.849915 
	C413.499237,193.849915 409.210083,193.849915 404.666687,193.849915 
	C404.666687,196.870438 404.666687,199.144089 404.666687,202.004730 
	C409.275055,202.004730 413.990143,202.004730 418.705261,202.004730 
	C418.852509,202.531219 418.999786,203.057693 419.147034,203.584183 
	C417.816162,204.120911 416.485260,204.657654 414.684875,205.194366 
z"/>
<path fill="#3E3B3C" opacity="1.000000" stroke="none" 
	d="
M547.029053,204.897934 
	C543.984802,204.986832 540.940613,205.075745 537.395203,204.825256 
	C536.602539,204.325928 536.311035,204.166016 536.019531,204.006104 
	C535.963867,197.307022 535.908264,190.607941 536.126953,183.392532 
	C536.480957,182.779968 536.646179,182.625519 536.626709,182.596909 
	C536.491821,182.398895 536.318481,182.227051 536.157471,182.046799 
	C551.933044,178.599686 556.920898,184.945221 555.145142,196.855972 
	C554.560608,200.776382 552.406616,203.475174 548.198608,204.673798 
	C547.509216,204.637390 547.269104,204.767670 547.029053,204.897934 
M552.087769,194.333878 
	C551.969604,185.265076 548.521606,182.692886 539.259277,184.740829 
	C539.259277,190.472504 539.259277,196.194778 539.259277,201.890121 
	C549.050842,202.797287 550.637695,201.946899 552.087769,194.333878 
z"/>
<path fill="#363334" opacity="1.000000" stroke="none" 
	d="
M659.100830,199.943512 
	C661.912048,202.777115 664.978821,203.734421 668.318604,201.994064 
	C669.449219,201.404861 670.783081,199.926712 670.799133,198.836761 
	C670.815186,197.743317 669.529846,196.120728 668.416077,195.623871 
	C665.879761,194.492432 662.780334,194.404999 660.515259,192.950394 
	C658.584106,191.710190 656.273254,189.087784 656.374756,187.197372 
	C656.481506,185.209412 658.882996,182.545425 660.934082,181.615555 
	C666.422546,179.127380 671.654846,181.905975 673.568542,188.636536 
	C671.833801,187.636963 670.828674,187.084229 669.850342,186.487610 
	C668.514343,185.672821 667.077148,183.994370 665.899963,184.166611 
	C663.577515,184.506454 661.403992,185.863846 659.168884,186.800446 
	C660.899536,188.182968 662.485962,189.831146 664.402222,190.871872 
	C666.247681,191.874146 668.557129,192.002396 670.446594,192.947037 
	C675.250183,195.348633 675.469116,201.207108 670.991760,204.128326 
	C665.179688,207.920380 657.443359,205.078171 656.026489,197.237015 
	C657.003357,198.024231 657.980286,198.811432 659.100830,199.943512 
z"/>
<path fill="#373435" opacity="1.000000" stroke="none" 
	d="
M619.726562,192.073730 
	C623.687195,193.718521 626.032043,196.212936 624.809753,200.290955 
	C623.509216,204.630157 619.729370,205.763550 615.720703,205.699142 
	C611.511536,205.631516 607.840393,204.213455 606.417053,199.716248 
	C606.219116,199.090607 606.926270,198.178543 607.214355,197.399063 
	C607.948914,197.846024 609.021301,198.116043 609.363281,198.768692 
	C611.570679,202.981781 615.058533,203.610901 619.006287,202.046661 
	C620.253967,201.552277 621.602844,199.848755 621.760742,198.558487 
	C621.875427,197.621445 620.306702,195.983109 619.136475,195.485550 
	C616.577148,194.397400 613.502808,194.313980 611.194458,192.907944 
	C609.361023,191.791199 607.135681,189.209808 607.291870,187.477753 
	C607.479553,185.396515 609.601990,182.695969 611.598083,181.722885 
	C617.214661,178.984818 622.827759,181.931854 624.220581,188.644257 
	C622.718018,187.779495 621.729736,187.350754 620.914734,186.703812 
	C620.031250,186.002533 619.340332,184.445724 618.510681,184.406006 
	C616.144653,184.292709 613.702881,184.565094 611.399719,185.129639 
	C610.778870,185.281830 610.008423,187.751801 610.219604,187.905853 
	C611.857971,189.100571 613.672668,190.093521 615.530273,190.933273 
	C616.717102,191.469788 618.069885,191.639328 619.726562,192.073730 
z"/>
<path fill="#363334" opacity="1.000000" stroke="none" 
	d="
M818.686157,185.604340 
	C817.070618,189.250183 819.647583,189.902084 821.813354,190.653122 
	C824.295837,191.513962 827.027344,191.804382 829.347961,192.953720 
	C834.011658,195.263489 834.342468,200.858444 830.228821,203.909317 
	C824.585510,208.094635 816.131592,205.146271 814.677734,197.250885 
	C815.609741,197.875443 816.807617,198.306671 817.427063,199.158524 
	C819.920166,202.586990 823.896179,203.924469 827.289368,201.946335 
	C828.410217,201.292892 829.740356,199.799347 829.717407,198.716599 
	C829.693970,197.609650 828.340271,196.043701 827.193054,195.547089 
	C824.643860,194.443604 821.581787,194.346497 819.259460,192.954102 
	C817.408264,191.844238 815.129517,189.346039 815.241882,187.606323 
	C815.375793,185.532532 817.438904,182.804504 819.405884,181.779739 
	C824.507202,179.122223 829.574402,181.376587 832.130371,187.283478 
	C827.514893,186.357330 823.705200,181.079422 818.686157,185.604340 
z"/>
<path fill="#3C393A" opacity="1.000000" stroke="none" 
	d="
M789.700989,183.688522 
	C791.667358,179.649994 793.630066,180.528656 794.940430,183.503906 
	C797.540161,189.406921 799.883667,195.427872 802.140564,201.471985 
	C802.532959,202.522766 801.980164,203.926483 800.988892,205.700439 
	C799.391235,196.978149 793.651917,197.346176 788.143433,198.209686 
	C786.471863,200.551636 785.000122,202.613586 783.528442,204.675552 
	C783.006592,204.342758 782.484802,204.009964 781.963013,203.677170 
	C784.493164,197.131363 787.023376,190.585541 789.700989,183.688522 
M791.117676,187.849609 
	C790.339844,190.140259 789.562073,192.430923 788.674866,195.043564 
	C791.334778,195.043564 793.539734,195.043564 796.120605,195.043564 
	C794.849976,191.572235 793.714844,188.471298 792.455383,185.030609 
	C791.940674,185.973480 791.628662,186.545059 791.117676,187.849609 
z"/>
<path fill="#3C393A" opacity="1.000000" stroke="none" 
	d="
M318.561890,195.543091 
	C316.671967,190.731415 314.974121,186.260956 313.276276,181.790497 
	C313.641205,181.459335 314.006134,181.128159 314.371063,180.796997 
	C315.430481,181.894501 316.945190,182.809860 317.469818,184.121307 
	C319.649750,189.570465 321.531067,195.139084 323.957428,201.872269 
	C325.724487,197.181641 326.769958,193.433746 328.520264,190.050522 
	C330.081573,187.032578 329.279114,182.158997 335.174377,180.899277 
	C332.008698,188.945343 329.238068,196.123581 326.312866,203.238281 
	C325.972656,204.065750 324.778992,205.037415 323.977112,205.040848 
	C323.173737,205.044296 322.016052,204.083206 321.625641,203.256012 
	C320.502747,200.876984 319.689087,198.351959 318.561890,195.543091 
z"/>
<path fill="#393637" opacity="1.000000" stroke="none" 
	d="
M235.151886,197.042023 
	C236.860733,192.500412 238.320129,188.273209 240.055954,184.162750 
	C240.598099,182.878922 241.886520,181.910217 242.833328,180.797272 
	C243.262314,181.108871 243.691284,181.420471 244.120270,181.732071 
	C241.361633,188.923141 238.654831,196.135117 235.774231,203.277023 
	C235.439819,204.106186 234.136566,205.036301 233.292542,205.026779 
	C232.485321,205.017670 231.297012,204.004074 230.953506,203.157242 
	C228.101929,196.127609 225.407471,189.034256 222.620819,181.844879 
	C226.076233,181.686081 226.069626,181.688446 228.998230,189.889450 
	C230.322433,193.597641 231.678787,197.294357 233.293076,201.748215 
	C234.080627,199.753403 234.544891,198.577438 235.151886,197.042023 
z"/>
<path fill="#262324" opacity="1.000000" stroke="none" 
	d="
M719.948059,191.256531 
	C724.310608,191.437485 728.673218,191.618439 733.035767,191.799393 
	C733.022644,192.420319 733.009460,193.041229 732.996338,193.662140 
	C728.777466,193.662140 724.558533,193.662140 719.755188,193.662140 
	C719.755188,196.639771 719.755188,198.885544 719.859802,201.566315 
	C719.964417,202.001297 719.950256,202.056763 719.618896,202.058014 
	C718.213867,202.698425 717.140259,203.337601 716.066711,203.976807 
	C716.066711,196.610245 716.066711,189.243668 716.066711,180.939774 
	C722.270813,181.371460 728.014771,181.771118 733.610840,182.685181 
	C733.256897,183.397095 733.093811,183.625381 732.973755,183.884460 
	C728.711853,183.884460 724.450012,183.884460 719.748352,183.884460 
	C719.748352,186.264832 719.748352,188.188293 719.514526,190.567902 
	C719.020325,191.345444 718.734314,191.651993 718.529358,192.005539 
	C718.501343,192.053848 718.877747,192.336578 719.066895,192.510773 
	C719.360596,192.092697 719.654358,191.674622 719.948059,191.256531 
z"/>
<path fill="#4C494A" opacity="1.000000" stroke="none" 
	d="
M569.133728,182.052292 
	C574.663696,181.644623 580.193604,181.236969 585.723572,180.829300 
	C585.786194,181.400864 585.848755,181.972427 585.911377,182.543991 
	C582.057739,186.152084 576.805603,182.838531 572.040894,184.686249 
	C572.040894,186.343231 572.040894,188.267700 572.070190,191.034637 
	C572.083984,192.658752 572.068481,193.440369 572.053040,194.222000 
	C572.053040,196.655273 572.053040,199.088547 572.053040,202.202454 
	C576.258240,202.202454 580.272766,202.202454 584.645142,202.757019 
	C585.002075,203.873810 585.001343,204.436035 585.000549,204.998245 
	C580.308533,205.065170 575.616577,205.132111 570.441772,204.826874 
	C569.639587,204.303253 569.320251,204.151840 569.000854,204.000427 
	C568.943420,197.303589 568.885925,190.606750 569.130981,183.418518 
	C569.520569,182.820816 569.698547,182.642227 569.680481,182.619461 
	C569.517822,182.414825 569.320679,182.237595 569.133728,182.052292 
z"/>
<path fill="#3C393A" opacity="1.000000" stroke="none" 
	d="
M470.129517,181.217621 
	C474.360901,181.217651 478.117340,181.217651 481.873779,181.217651 
	C481.969299,181.791092 482.064819,182.364532 482.160339,182.937988 
	C479.754456,183.498871 477.348572,184.059753 474.340668,184.760971 
	C473.963928,191.243103 474.550598,198.386536 474.045807,205.345490 
	C473.048462,205.198013 472.051086,205.050552 471.053741,204.903076 
	C471.053741,198.121475 471.053741,191.339859 471.053741,183.971436 
	C468.211578,183.971436 465.692993,183.971436 463.174408,183.971436 
	C463.104492,183.283813 463.034607,182.596191 462.964722,181.908569 
	C465.194672,181.678238 467.424591,181.447922 470.129517,181.217621 
z"/>
<path fill="#4C494A" opacity="1.000000" stroke="none" 
	d="
M293.662598,182.932022 
	C293.662598,189.175583 293.662598,195.419128 293.662598,201.289154 
	C297.733978,203.535461 302.497070,200.213715 306.562714,204.865906 
	C300.461182,204.865906 295.643555,204.865906 290.547607,204.865906 
	C290.547607,197.794724 290.547607,190.879562 291.039673,183.538666 
	C292.242035,183.052612 292.952332,182.992325 293.662598,182.932022 
z"/>
<path fill="#575555" opacity="1.000000" stroke="none" 
	d="
M692.959473,182.123016 
	C693.733643,182.058716 694.507874,181.994431 695.639404,182.321381 
	C696.348267,183.153442 696.699707,183.594254 697.051147,184.035065 
	C696.916626,190.007828 696.884277,195.986099 696.563293,201.948822 
	C696.497192,203.177765 695.355103,204.348770 694.708862,205.546463 
	C694.159729,205.313965 693.610535,205.081467 693.061401,204.848969 
	C693.061401,198.240128 693.061401,191.631271 693.084839,184.234192 
	C693.058655,183.004990 693.009033,182.564011 692.959473,182.123016 
z"/>
<path fill="#302C2E" opacity="1.000000" stroke="none" 
	d="
M641.989990,193.012115 
	C641.989624,196.504379 642.135742,199.515320 641.909241,202.497971 
	C641.830322,203.537613 640.831238,204.507385 640.252441,205.509094 
	C639.774780,205.289215 639.297058,205.069351 638.819397,204.849487 
	C638.819397,197.728683 638.780273,190.607361 638.877686,183.487885 
	C638.887817,182.748947 639.708618,182.021103 640.153259,181.288132 
	C640.765076,182.032166 641.850037,182.743134 641.904724,183.526093 
	C642.113220,186.511353 641.989563,189.519836 641.989990,193.012115 
z"/>
<path fill="#302C2E" opacity="1.000000" stroke="none" 
	d="
M347.034210,183.485138 
	C347.646973,182.451904 348.258362,181.873093 348.869781,181.294266 
	C349.291656,182.039444 350.070099,182.779968 350.079895,183.530563 
	C350.172974,190.643402 350.135345,197.757950 350.135345,204.872009 
	C349.575470,205.052414 349.015564,205.232819 348.455688,205.413208 
	C347.981567,204.247314 347.125122,203.090332 347.097687,201.914017 
	C346.958069,195.925293 347.033020,189.931549 347.034210,183.485138 
z"/>
<path fill="#4C494A" opacity="1.000000" stroke="none" 
	d="
M164.068069,184.267853 
	C164.073410,186.507446 164.078751,188.747040 164.038971,191.821136 
	C164.020020,193.207855 164.046188,193.760071 164.072357,194.312286 
	C164.080795,196.560837 164.089233,198.809402 164.079559,201.868149 
	C164.040787,203.452942 164.020111,204.227554 163.999420,205.002151 
	C163.555588,205.067429 163.111771,205.132706 162.311768,204.847931 
	C161.660553,204.339340 161.365494,204.180817 161.070435,204.022308 
	C161.024155,197.314026 160.977875,190.605759 161.235611,183.384888 
	C161.824127,182.695267 161.966858,182.439209 161.967819,182.104126 
	C162.429230,182.054077 162.890656,182.004028 163.662262,182.398743 
	C164.004333,183.318283 164.036209,183.793076 164.068069,184.267853 
z"/>
<path fill="#383536" opacity="1.000000" stroke="none" 
	d="
M99.079765,204.013824 
	C99.039017,197.312347 98.998268,190.610886 99.231613,183.368073 
	C99.754761,182.654037 99.912392,182.419815 99.978615,182.124054 
	C100.434418,182.082443 100.890213,182.040833 101.680191,182.410080 
	C102.023224,183.258316 102.032082,183.695709 102.040939,184.133087 
	C102.028275,186.438004 102.015610,188.742905 102.013580,191.860870 
	C102.035767,193.181564 102.047310,193.689224 102.058853,194.196869 
	C102.040291,196.808365 102.021721,199.419846 102.006302,202.811340 
	C102.007629,204.049179 102.005821,204.507034 102.004013,204.964874 
	C101.558128,205.025925 101.112251,205.086990 100.258850,204.847168 
	C99.677483,204.248062 99.420296,204.070572 99.079765,204.013824 
z"/>
<path fill="#413E3F" opacity="1.000000" stroke="none" 
	d="
M338.926544,142.418427 
	C348.566956,142.889786 358.465332,143.645813 368.678528,144.670715 
	C358.865234,146.750854 348.946838,145.767258 338.926544,142.418427 
z"/>
<path fill="#262324" opacity="1.000000" stroke="none" 
	d="
M164.463654,205.057251 
	C164.020111,204.227554 164.040787,203.452942 164.041702,202.289978 
	C167.793579,202.033188 171.570724,202.084167 175.333847,202.340668 
	C176.625381,202.428711 177.881882,203.030594 179.154388,203.397736 
	C179.062439,203.969269 178.970474,204.540817 178.878510,205.112350 
	C174.228302,205.112350 169.578094,205.112350 164.463654,205.057251 
z"/>
<path fill="#262324" opacity="1.000000" stroke="none" 
	d="
M719.939209,202.019775 
	C724.632568,202.420502 729.351074,202.802750 733.891052,203.754089 
	C733.479309,204.563324 733.246155,204.803436 733.013000,205.043564 
	C728.980774,205.067017 724.948608,205.090469 720.390991,204.698013 
	C719.893860,203.540329 719.922058,202.798553 719.950256,202.056763 
	C719.950256,202.056763 719.964417,202.001297 719.939209,202.019775 
z"/>
<path fill="#4C494A" opacity="1.000000" stroke="none" 
	d="
M621.863037,75.450363 
	C622.785034,73.997368 624.725769,72.932426 624.894714,71.636490 
	C625.354126,68.112457 625.063660,64.490669 625.037476,60.439747 
	C625.622437,60.906967 626.737610,61.822918 626.774475,62.780407 
	C626.958191,67.550423 626.858398,72.331383 626.858398,77.607666 
	C625.029907,76.891289 623.551758,76.312172 621.863037,75.450363 
z"/>
<path fill="#211E1F" opacity="1.000000" stroke="none" 
	d="
M572.511719,194.163696 
	C572.068481,193.440369 572.083984,192.658752 572.041016,191.488861 
	C576.360352,191.390625 580.737976,191.680679 585.115662,191.970718 
	C585.068054,192.682266 585.020508,193.393829 584.972900,194.105377 
	C580.972046,194.105377 576.971252,194.105377 572.511719,194.163696 
z"/>
<path fill="#575555" opacity="1.000000" stroke="none" 
	d="
M388.037720,76.174561 
	C387.391144,70.459496 386.987518,64.961662 386.317627,59.167572 
	C387.291260,59.801754 389.520355,60.653309 389.601929,61.676125 
	C389.980103,66.418152 389.775421,71.207916 389.696014,75.979202 
	C389.693573,76.124542 388.773102,76.254601 388.037720,76.174561 
z"/>
<path fill="#413E3F" opacity="1.000000" stroke="none" 
	d="
M495.404358,145.027924 
	C500.453735,144.755722 505.904602,144.573196 511.673004,144.653778 
	C506.595642,144.983780 501.200775,145.050690 495.404358,145.027924 
z"/>
<path fill="#413E3F" opacity="1.000000" stroke="none" 
	d="
M545.105957,107.608795 
	C544.794495,103.197853 544.607605,98.401802 544.704834,93.305008 
	C545.069458,97.744064 545.149963,102.483879 545.105957,107.608795 
z"/>
<path fill="#262324" opacity="1.000000" stroke="none" 
	d="
M102.464851,205.036438 
	C102.005821,204.507034 102.007629,204.049179 102.019142,203.247925 
	C106.672951,202.904526 111.317055,202.904526 115.961166,202.904526 
	C115.976959,203.639008 115.992760,204.373505 116.008553,205.107986 
	C111.647598,205.107986 107.286644,205.107986 102.464851,205.036438 
z"/>
<path fill="#262324" opacity="1.000000" stroke="none" 
	d="
M164.519211,184.177948 
	C164.036209,183.793076 164.004333,183.318283 164.001160,182.487457 
	C168.560440,182.131409 173.091064,182.131409 177.621674,182.131409 
	C177.654053,182.652145 177.686432,183.172882 177.718811,183.693604 
	C173.469330,183.825089 169.219833,183.956573 164.519211,184.177948 
z"/>
<path fill="#211E1F" opacity="1.000000" stroke="none" 
	d="
M164.528259,194.229889 
	C164.046188,193.760071 164.020020,193.207855 164.017090,192.241119 
	C168.434036,191.826584 172.827744,191.826584 177.221451,191.826584 
	C177.219635,192.600220 177.217834,193.373840 177.216019,194.147476 
	C173.138733,194.147476 169.061432,194.147476 164.528259,194.229889 
z"/>
<path fill="#211E1F" opacity="1.000000" stroke="none" 
	d="
M102.520279,194.156616 
	C102.047310,193.689224 102.035767,193.181564 102.024620,192.292999 
	C106.400620,191.912079 110.776215,191.912079 115.151817,191.912079 
	C115.150330,192.646835 115.148849,193.381592 115.147369,194.116348 
	C111.092155,194.116348 107.036934,194.116348 102.520279,194.156616 
z"/>
<path fill="#262324" opacity="1.000000" stroke="none" 
	d="
M102.500961,184.083755 
	C102.032082,183.695709 102.023224,183.258316 102.014999,182.492828 
	C106.322983,182.164703 110.630333,182.164703 114.937675,182.164703 
	C114.968437,182.787949 114.999207,183.411179 115.029968,184.034424 
	C111.006973,184.034424 106.983978,184.034424 102.500961,184.083755 
z"/>
<path fill="#211E1F" opacity="1.000000" stroke="none" 
	d="
M697.474121,184.040070 
	C696.699707,183.594254 696.348267,183.153442 696.018555,182.417664 
	C698.776550,182.122681 701.512695,182.122681 704.248901,182.122681 
	C704.287903,182.625961 704.326965,183.129242 704.365967,183.632523 
	C702.209717,183.770020 700.053406,183.907532 697.474121,184.040070 
z"/>
<path fill="#211E1F" opacity="1.000000" stroke="none" 
	d="
M692.512817,182.082062 
	C693.009033,182.564011 693.058655,183.004990 693.043823,183.773499 
	C690.326721,184.101044 687.674072,184.101044 685.021362,184.101044 
	C685.011536,183.414398 685.001709,182.727753 684.991821,182.041107 
	C687.349976,182.041107 689.708130,182.041107 692.512817,182.082062 
z"/>
<path fill="#413E3F" opacity="1.000000" stroke="none" 
	d="
M371.347900,144.648712 
	C373.234253,143.812729 375.487091,142.963654 378.158600,142.158020 
	C376.289673,143.012878 374.002014,143.824249 371.347900,144.648712 
z"/>
<path fill="#3E3B3C" opacity="1.000000" stroke="none" 
	d="
M617.333740,143.583984 
	C619.106079,142.775116 621.226685,141.908478 623.741699,141.073959 
	C621.984741,141.912796 619.833374,142.719498 617.333740,143.583984 
z"/>
<path fill="#575555" opacity="1.000000" stroke="none" 
	d="
M719.618896,202.058014 
	C719.922058,202.798553 719.893860,203.540329 719.929260,204.651276 
	C718.697144,204.940445 717.401428,204.860458 716.086182,204.378632 
	C717.140259,203.337601 718.213867,202.698425 719.618896,202.058014 
z"/>
<path fill="#211E1F" opacity="1.000000" stroke="none" 
	d="
M293.684753,182.607437 
	C292.952332,182.992325 292.242035,183.052612 291.175354,183.090988 
	C291.781616,182.806992 292.744293,182.544922 293.684753,182.607437 
z"/>
<path fill="#413E3F" opacity="1.000000" stroke="none" 
	d="
M490.299805,143.974945 
	C490.968353,143.909149 491.927185,143.962219 492.954315,144.300537 
	C492.211792,144.421799 491.400940,144.257797 490.299805,143.974945 
z"/>
<path fill="#413E3F" opacity="1.000000" stroke="none" 
	d="
M338.003815,124.614868 
	C337.434875,124.947319 336.690643,124.971436 335.574097,125.003784 
	C335.233948,124.383606 335.266083,123.755188 335.298218,123.126770 
	C336.141632,123.520020 336.985077,123.913277 338.003815,124.614868 
z"/>
<path fill="#211E1F" opacity="1.000000" stroke="none" 
	d="
M767.171753,204.380630 
	C767.845886,204.005615 768.547058,203.987473 769.598389,203.989441 
	C769.031982,204.252213 768.115356,204.494843 767.171753,204.380630 
z"/>
<path fill="#4C494A" opacity="1.000000" stroke="none" 
	d="
M618.959473,74.365997 
	C619.353516,74.262878 619.956482,74.403732 620.779785,74.778603 
	C620.389587,74.878403 619.778992,74.744186 618.959473,74.365997 
z"/>
<path fill="#413E3F" opacity="1.000000" stroke="none" 
	d="
M486.032104,142.379578 
	C486.437836,142.260880 487.024048,142.396530 487.802063,142.777130 
	C487.400085,142.892685 486.806335,142.763290 486.032104,142.379578 
z"/>
<path fill="#575555" opacity="1.000000" stroke="none" 
	d="
M384.984497,74.471863 
	C385.421997,74.380882 386.022888,74.561401 386.784851,75.026062 
	C386.346588,75.121262 385.747223,74.932304 384.984497,74.471863 
z"/>
<path fill="#413E3F" opacity="1.000000" stroke="none" 
	d="
M483.969849,141.443390 
	C484.408508,141.318359 485.007477,141.463043 485.766724,141.885712 
	C485.328033,142.013504 484.729095,141.863297 483.969849,141.443390 
z"/>
<path fill="#413E3F" opacity="1.000000" stroke="none" 
	d="
M379.302856,142.053345 
	C379.485596,141.717926 379.973938,141.385376 380.771851,141.055634 
	C380.590454,141.391006 380.099487,141.723602 379.302856,142.053345 
z"/>
<path fill="#4C494A" opacity="1.000000" stroke="none" 
	d="
M624.122192,59.589684 
	C623.718445,59.716194 623.094482,59.597332 622.235413,59.247791 
	C622.634155,59.126179 623.268066,59.235249 624.122192,59.589684 
z"/>
<path fill="#3E3B3C" opacity="1.000000" stroke="none" 
	d="
M624.395264,141.129822 
	C624.603027,140.795929 625.145264,140.450226 626.030945,140.124954 
	C625.826172,140.469589 625.277954,140.793793 624.395264,141.129822 
z"/>
<path fill="#413E3F" opacity="1.000000" stroke="none" 
	d="
M481.942993,140.367371 
	C482.383942,140.277023 482.990601,140.457916 483.741943,140.933624 
	C483.294006,141.031845 482.701324,140.835236 481.942993,140.367371 
z"/>
<path fill="#191617" opacity="1.000000" stroke="none" 
	d="
M585.381836,204.924133 
	C585.001343,204.436035 585.002075,203.873810 585.033813,202.888733 
	C585.297607,203.260574 585.530396,204.055298 585.381836,204.924133 
z"/>
<path fill="#FFC91C" opacity="1.000000" stroke="none" 
	d="
M158.159698,111.766243 
	C157.957123,111.768761 157.790649,111.502625 157.785248,111.126373 
	C158.029495,111.176697 158.112656,111.337143 158.159698,111.766243 
z"/>
<path fill="#575555" opacity="1.000000" stroke="none" 
	d="
M733.340942,205.084747 
	C733.246155,204.803436 733.479309,204.563324 733.919067,204.180511 
	C733.973389,204.400528 733.821106,204.763245 733.340942,205.084747 
z"/>
<path fill="#4C494A" opacity="1.000000" stroke="none" 
	d="
M617.236816,73.970833 
	C617.273743,73.811981 617.551636,73.760902 617.914795,73.855301 
	C617.825928,74.026718 617.651855,74.052658 617.236816,73.970833 
z"/>
<path fill="#575555" opacity="1.000000" stroke="none" 
	d="
M384.189850,74.082138 
	C383.995972,73.969345 384.379822,73.688179 384.379822,73.688179 
	C384.379822,73.688179 384.794556,73.874352 384.813354,74.041260 
	C384.832153,74.208160 384.383728,74.194939 384.189850,74.082138 
z"/>
<path fill="#262324" opacity="1.000000" stroke="none" 
	d="
M425.942200,59.714787 
	C425.630341,59.913086 425.402466,59.763481 425.129822,59.351234 
	C425.346985,59.260223 425.660706,59.352989 425.942200,59.714787 
z"/>
<path fill="#211E1F" opacity="1.000000" stroke="none" 
	d="
M408.690918,59.124035 
	C408.869598,59.450119 408.693604,59.671177 408.239258,59.910034 
	C408.164612,59.687454 408.289673,59.384510 408.690918,59.124035 
z"/>
<path fill="#FFC91C" opacity="1.000000" stroke="none" 
	d="
M158.094177,54.676792 
	C157.794983,54.783562 157.467316,54.523933 156.999542,53.974800 
	C157.261536,53.893661 157.663620,54.102028 158.094177,54.676792 
z"/>
<path fill="#191617" opacity="1.000000" stroke="none" 
	d="
M66.059631,204.314331 
	C66.362724,204.179245 66.648392,204.334915 66.967438,204.746399 
	C66.681274,204.869827 66.361732,204.737457 66.059631,204.314331 
z"/>
<path fill="#191617" opacity="1.000000" stroke="none" 
	d="
M77.262100,204.950104 
	C77.280334,204.773743 77.532372,204.639694 77.867210,204.679016 
	C77.950012,204.852371 77.495903,204.992432 77.262100,204.950104 
z"/>
<path fill="#262324" opacity="1.000000" stroke="none" 
	d="
M99.051163,204.310303 
	C99.420296,204.070572 99.677483,204.248062 99.926109,204.775208 
	C99.674782,204.871674 99.348671,204.739243 99.051163,204.310303 
z"/>
<path fill="#262324" opacity="1.000000" stroke="none" 
	d="
M161.054291,204.315399 
	C161.365494,204.180817 161.660553,204.339340 161.982880,204.762360 
	C161.686127,204.887405 161.362137,204.747940 161.054291,204.315399 
z"/>
<path fill="#191617" opacity="1.000000" stroke="none" 
	d="
M535.998596,204.306870 
	C536.311035,204.166016 536.602539,204.325928 536.946350,204.740921 
	C536.658325,204.866531 536.317993,204.737076 535.998596,204.306870 
z"/>
<path fill="#191617" opacity="1.000000" stroke="none" 
	d="
M547.262695,204.938110 
	C547.269104,204.767670 547.509216,204.637390 547.844849,204.659821 
	C547.940491,204.812515 547.496277,204.978302 547.262695,204.938110 
z"/>
<path fill="#191617" opacity="1.000000" stroke="none" 
	d="
M568.990601,204.302734 
	C569.320251,204.151840 569.639587,204.303253 569.983704,204.736435 
	C569.665710,204.880478 569.322998,204.742767 568.990601,204.302734 
z"/>
<path fill="#211E1F" opacity="1.000000" stroke="none" 
	d="
M769.974731,182.738678 
	C769.788025,182.739563 769.653931,182.499466 769.665283,182.156891 
	C769.810669,182.054428 770.027405,182.497665 769.974731,182.738678 
z"/>
<path fill="#191617" opacity="1.000000" stroke="none" 
	d="
M407.967499,143.297363 
	C408.350037,143.029160 408.628113,143.186676 408.908478,143.706802 
	C408.634155,143.825760 408.284912,143.710327 407.967499,143.297363 
z"/>
<path fill="#191617" opacity="1.000000" stroke="none" 
	d="
M66.094681,182.276794 
	C66.353401,182.232758 66.534218,182.399933 66.672684,182.596863 
	C66.696205,182.630295 66.537949,182.791565 66.276947,182.931488 
	C66.090225,182.969208 66.002510,182.498001 66.094681,182.276794 
z"/>
<path fill="#262324" opacity="1.000000" stroke="none" 
	d="
M99.707382,182.086273 
	C99.912392,182.419815 99.754761,182.654037 99.303894,182.903137 
	C99.213432,182.669205 99.324791,182.358841 99.707382,182.086273 
z"/>
<path fill="#262324" opacity="1.000000" stroke="none" 
	d="
M301.358093,143.901733 
	C301.262421,143.623215 301.498993,143.378418 301.976135,143.034363 
	C302.041290,143.268570 301.865814,143.602036 301.358093,143.901733 
z"/>
<path fill="#262324" opacity="1.000000" stroke="none" 
	d="
M161.702835,182.083344 
	C161.966858,182.439209 161.824127,182.695267 161.316559,182.920502 
	C161.208282,182.666656 161.323059,182.364624 161.702835,182.083344 
z"/>
<path fill="#191617" opacity="1.000000" stroke="none" 
	d="
M536.048340,182.271729 
	C536.318481,182.227051 536.491821,182.398895 536.626709,182.596909 
	C536.646179,182.625519 536.480957,182.779968 536.220703,182.931305 
	C536.006592,182.823151 535.972961,182.659912 536.048340,182.271729 
z"/>
<path fill="#191617" opacity="1.000000" stroke="none" 
	d="
M569.037842,182.278519 
	C569.320679,182.237595 569.517822,182.414825 569.680481,182.619461 
	C569.698547,182.642227 569.520569,182.820816 569.228882,182.958176 
	C569.024231,182.989243 568.941956,182.504745 569.037842,182.278519 
z"/>
<path fill="#413E3F" opacity="1.000000" stroke="none" 
	d="
M336.598236,141.487030 
	C336.804626,141.326645 337.194794,141.425598 337.791748,141.753784 
	C337.593018,141.904144 337.187531,141.825256 336.598236,141.487030 
z"/>
<path fill="#FFC91C" opacity="1.000000" stroke="none" 
	d="
M158.095093,87.747665 
	C157.823456,87.805565 157.645599,87.623421 157.509552,87.414101 
	C157.489395,87.383080 157.666718,87.223740 157.936737,87.043396 
	C158.148010,87.141632 158.175201,87.320236 158.095093,87.747665 
z"/>
<path fill="#413E3F" opacity="1.000000" stroke="none" 
	d="
M381.354004,141.050018 
	C381.345306,140.804855 381.654022,140.533859 382.276733,140.234802 
	C382.284271,140.479218 381.977844,140.751709 381.354004,141.050018 
z"/>
<path fill="#575555" opacity="1.000000" stroke="none" 
	d="
M733.267334,183.937225 
	C733.093811,183.625381 733.256897,183.397095 733.639709,183.083740 
	C733.731262,183.308609 733.646057,183.649307 733.267334,183.937225 
z"/>
<path fill="#413E3F" opacity="1.000000" stroke="none" 
	d="
M335.102020,140.282150 
	C335.435425,140.142151 335.658569,140.344055 335.912231,140.820587 
	C335.684082,140.873688 335.367096,140.716644 335.102020,140.282150 
z"/>
<path fill="#191617" opacity="1.000000" stroke="none" 
	d="
M458.044586,129.722534 
	C457.724792,129.928345 457.471252,129.778290 457.152710,129.360428 
	C457.385895,129.256363 457.726929,129.347717 458.044586,129.722534 
z"/>
<path fill="#FFC201" opacity="1.000000" stroke="none" 
	d="
M139.731537,128.071350 
	C139.706329,128.214355 139.450638,128.322006 139.117920,128.270416 
	C139.040878,128.111206 139.501083,128.035995 139.731537,128.071350 
z"/>
<path fill="#FFC91C" opacity="1.000000" stroke="none" 
	d="
M158.082535,144.745178 
	C157.807526,144.796585 157.636154,144.611572 157.507385,144.400558 
	C157.488052,144.368866 157.668045,144.215546 157.939575,144.040543 
	C158.148880,144.141846 158.174454,144.321075 158.082535,144.745178 
z"/>
<path fill="#191617" opacity="1.000000" stroke="none" 
	d="
M457.327484,143.963287 
	C457.204529,143.672119 457.394287,143.403076 457.827667,143.055374 
	C457.927612,143.312958 457.783905,143.649185 457.327484,143.963287 
z"/>
<path fill="#FEFEFE" opacity="1.000000" stroke="none" 
	d="
M520.208496,79.867432 
	C527.859070,91.517296 527.923157,103.757668 523.752625,116.004395 
	C520.737793,124.857368 513.702515,129.503006 504.302979,129.753281 
	C495.348358,129.991699 488.484436,125.977623 484.613678,117.865303 
	C479.381653,106.900070 479.269287,95.554031 484.561523,84.663200 
	C491.441620,70.504738 508.849182,68.201416 520.208496,79.867432 
z"/>
<path fill="#FCFCFC" opacity="1.000000" stroke="none" 
	d="
M795.809204,91.224518 
	C797.851013,97.570404 799.777588,103.531204 801.797241,109.779770 
	C794.235291,109.779770 786.860046,109.779770 779.297729,109.779770 
	C783.122070,97.820702 786.937866,85.888443 790.556030,74.574059 
	C792.112244,79.500465 793.903137,85.169945 795.809204,91.224518 
z"/>
<path fill="#FCFCFC" opacity="1.000000" stroke="none" 
	d="
M272.347717,200.134918 
	C268.851166,203.456284 265.363892,203.886597 261.738617,201.292877 
	C258.248749,198.796051 257.148804,193.356155 259.090424,188.595261 
	C260.624420,184.833832 263.641388,183.554184 267.485992,183.936249 
	C271.884705,184.373352 274.894806,188.427765 274.442688,193.745422 
	C274.266541,195.817230 273.263428,197.818726 272.347717,200.134918 
z"/>
<path fill="#FCFCFC" opacity="1.000000" stroke="none" 
	d="
M496.466187,197.078232 
	C495.561371,188.744888 497.448792,184.853729 502.470428,183.987640 
	C506.825287,183.236572 510.566742,185.457504 511.788788,189.519043 
	C513.438843,195.003204 511.415863,200.408112 507.009216,202.289001 
	C502.850067,204.064240 499.519043,202.509277 496.466187,197.078232 
z"/>
<path fill="#FCFCFC" opacity="1.000000" stroke="none" 
	d="
M75.446472,184.117722 
	C81.744698,186.108826 83.361671,189.214691 82.103691,196.103729 
	C81.095978,201.622284 78.991714,202.615402 69.338417,201.980698 
	C69.338417,196.262390 69.338417,190.516251 69.338417,184.095276 
	C71.201027,184.095276 73.109360,184.095276 75.446472,184.117722 
z"/>
<path fill="#FEFEFE" opacity="1.000000" stroke="none" 
	d="
M552.071045,194.761108 
	C550.637695,201.946899 549.050842,202.797287 539.259277,201.890121 
	C539.259277,196.194778 539.259277,190.472504 539.259277,184.740829 
	C548.521606,182.692886 551.969604,185.265076 552.071045,194.761108 
z"/>
<path fill="#FCFCFC" opacity="1.000000" stroke="none" 
	d="
M791.217163,187.483124 
	C791.628662,186.545059 791.940674,185.973480 792.455383,185.030609 
	C793.714844,188.471298 794.849976,191.572235 796.120605,195.043564 
	C793.539734,195.043564 791.334778,195.043564 788.674866,195.043564 
	C789.562073,192.430923 790.339844,190.140259 791.217163,187.483124 
z"/>
<path fill="#575555" opacity="1.000000" stroke="none" 
	d="
M719.971863,191.161499 
	C719.654358,191.674622 719.360596,192.092697 719.066895,192.510773 
	C718.877747,192.336578 718.501343,192.053848 718.529358,192.005539 
	C718.734314,191.651993 719.020325,191.345444 719.541504,191.029724 
	C719.802185,191.035385 719.995667,191.066467 719.971863,191.161499 
z"/>
</svg>